<mxfile host="app.diagrams.net" agent="Mozilla/5.0 (Windows NT 10.0; Win64; x64) AppleWebKit/537.36 (KHTML, like Gecko) Chrome/129.0.0.0 Safari/537.36" version="24.7.17">
  <diagram id="R2lEEEUBdFMjLlhIrx00" name="Page-1">
    <mxGraphModel dx="1414" dy="599" grid="0" gridSize="11" guides="1" tooltips="1" connect="1" arrows="0" fold="1" page="1" pageScale="1" pageWidth="2000" pageHeight="1800" background="#CCE5FF" math="0" shadow="0" extFonts="Permanent Marker^https://fonts.googleapis.com/css?family=Permanent+Marker">
      <root>
        <mxCell id="0" />
        <mxCell id="1" parent="0" />
        <mxCell id="C-vyLk0tnHw3VtMMgP7b-23" value="Customer_Dim" style="shape=table;startSize=30;container=1;collapsible=1;childLayout=tableLayout;fixedRows=1;rowLines=0;align=center;resizeLast=1;fillColor=#f0f6ff;strokeColor=#6c8ebf;fontStyle=1;gradientColor=#0066FF;rounded=1;shadow=1;" parent="1" vertex="1">
          <mxGeometry x="690.5" y="1062" width="308" height="210" as="geometry" />
        </mxCell>
        <mxCell id="C-vyLk0tnHw3VtMMgP7b-24" value="" style="shape=partialRectangle;collapsible=0;dropTarget=0;pointerEvents=0;fillColor=none;points=[[0,0.5],[1,0.5]];portConstraint=eastwest;top=0;left=0;right=0;bottom=1;fontStyle=1;rounded=1;" parent="C-vyLk0tnHw3VtMMgP7b-23" vertex="1">
          <mxGeometry y="30" width="308" height="30" as="geometry" />
        </mxCell>
        <mxCell id="C-vyLk0tnHw3VtMMgP7b-25" value="PK" style="shape=partialRectangle;overflow=hidden;connectable=0;fillColor=none;top=0;left=0;bottom=0;right=0;fontStyle=1;rounded=1;" parent="C-vyLk0tnHw3VtMMgP7b-24" vertex="1">
          <mxGeometry width="30" height="30" as="geometry">
            <mxRectangle width="30" height="30" as="alternateBounds" />
          </mxGeometry>
        </mxCell>
        <mxCell id="C-vyLk0tnHw3VtMMgP7b-26" value="customer_id bigint NOT NULL " style="shape=partialRectangle;overflow=hidden;connectable=0;fillColor=none;top=0;left=0;bottom=0;right=0;align=left;spacingLeft=6;fontStyle=1;rounded=1;" parent="C-vyLk0tnHw3VtMMgP7b-24" vertex="1">
          <mxGeometry x="30" width="278" height="30" as="geometry">
            <mxRectangle width="278" height="30" as="alternateBounds" />
          </mxGeometry>
        </mxCell>
        <mxCell id="5p0k1yBP0SDuxStHFk_L-29" style="shape=partialRectangle;collapsible=0;dropTarget=0;pointerEvents=0;fillColor=none;points=[[0,0.5],[1,0.5]];portConstraint=eastwest;top=0;left=0;right=0;bottom=0;fontStyle=1;rounded=1;" vertex="1" parent="C-vyLk0tnHw3VtMMgP7b-23">
          <mxGeometry y="60" width="308" height="30" as="geometry" />
        </mxCell>
        <mxCell id="5p0k1yBP0SDuxStHFk_L-30" value="FK" style="shape=partialRectangle;overflow=hidden;connectable=0;fillColor=none;top=0;left=0;bottom=0;right=0;fontStyle=1;rounded=1;" vertex="1" parent="5p0k1yBP0SDuxStHFk_L-29">
          <mxGeometry width="30" height="30" as="geometry">
            <mxRectangle width="30" height="30" as="alternateBounds" />
          </mxGeometry>
        </mxCell>
        <mxCell id="5p0k1yBP0SDuxStHFk_L-31" value="customer_sales_area bigint NOT NULL" style="shape=partialRectangle;overflow=hidden;connectable=0;fillColor=none;top=0;left=0;bottom=0;right=0;align=left;spacingLeft=6;fontStyle=1;rounded=1;" vertex="1" parent="5p0k1yBP0SDuxStHFk_L-29">
          <mxGeometry x="30" width="278" height="30" as="geometry">
            <mxRectangle width="278" height="30" as="alternateBounds" />
          </mxGeometry>
        </mxCell>
        <mxCell id="C-vyLk0tnHw3VtMMgP7b-27" value="" style="shape=partialRectangle;collapsible=0;dropTarget=0;pointerEvents=0;fillColor=none;points=[[0,0.5],[1,0.5]];portConstraint=eastwest;top=0;left=0;right=0;bottom=0;fontStyle=1;rounded=1;" parent="C-vyLk0tnHw3VtMMgP7b-23" vertex="1">
          <mxGeometry y="90" width="308" height="30" as="geometry" />
        </mxCell>
        <mxCell id="C-vyLk0tnHw3VtMMgP7b-28" value="" style="shape=partialRectangle;overflow=hidden;connectable=0;fillColor=none;top=0;left=0;bottom=0;right=0;fontStyle=1;rounded=1;" parent="C-vyLk0tnHw3VtMMgP7b-27" vertex="1">
          <mxGeometry width="30" height="30" as="geometry">
            <mxRectangle width="30" height="30" as="alternateBounds" />
          </mxGeometry>
        </mxCell>
        <mxCell id="C-vyLk0tnHw3VtMMgP7b-29" value="name varchar(50) NOT NULL" style="shape=partialRectangle;overflow=hidden;connectable=0;fillColor=none;top=0;left=0;bottom=0;right=0;align=left;spacingLeft=6;fontStyle=1;rounded=1;" parent="C-vyLk0tnHw3VtMMgP7b-27" vertex="1">
          <mxGeometry x="30" width="278" height="30" as="geometry">
            <mxRectangle width="278" height="30" as="alternateBounds" />
          </mxGeometry>
        </mxCell>
        <mxCell id="5Bc8UwKq1f_1eTB7SCyp-79" style="shape=partialRectangle;collapsible=0;dropTarget=0;pointerEvents=0;fillColor=none;points=[[0,0.5],[1,0.5]];portConstraint=eastwest;top=0;left=0;right=0;bottom=0;fontStyle=1;rounded=1;" parent="C-vyLk0tnHw3VtMMgP7b-23" vertex="1">
          <mxGeometry y="120" width="308" height="30" as="geometry" />
        </mxCell>
        <mxCell id="5Bc8UwKq1f_1eTB7SCyp-80" style="shape=partialRectangle;overflow=hidden;connectable=0;fillColor=none;top=0;left=0;bottom=0;right=0;fontStyle=1;rounded=1;" parent="5Bc8UwKq1f_1eTB7SCyp-79" vertex="1">
          <mxGeometry width="30" height="30" as="geometry">
            <mxRectangle width="30" height="30" as="alternateBounds" />
          </mxGeometry>
        </mxCell>
        <mxCell id="5Bc8UwKq1f_1eTB7SCyp-81" value="surname varchar(50) NOT NULL" style="shape=partialRectangle;overflow=hidden;connectable=0;fillColor=none;top=0;left=0;bottom=0;right=0;align=left;spacingLeft=6;fontStyle=1;rounded=1;" parent="5Bc8UwKq1f_1eTB7SCyp-79" vertex="1">
          <mxGeometry x="30" width="278" height="30" as="geometry">
            <mxRectangle width="278" height="30" as="alternateBounds" />
          </mxGeometry>
        </mxCell>
        <mxCell id="5p0k1yBP0SDuxStHFk_L-32" style="shape=partialRectangle;collapsible=0;dropTarget=0;pointerEvents=0;fillColor=none;points=[[0,0.5],[1,0.5]];portConstraint=eastwest;top=0;left=0;right=0;bottom=0;fontStyle=1;rounded=1;" vertex="1" parent="C-vyLk0tnHw3VtMMgP7b-23">
          <mxGeometry y="150" width="308" height="30" as="geometry" />
        </mxCell>
        <mxCell id="5p0k1yBP0SDuxStHFk_L-33" style="shape=partialRectangle;overflow=hidden;connectable=0;fillColor=none;top=0;left=0;bottom=0;right=0;fontStyle=1;rounded=1;" vertex="1" parent="5p0k1yBP0SDuxStHFk_L-32">
          <mxGeometry width="30" height="30" as="geometry">
            <mxRectangle width="30" height="30" as="alternateBounds" />
          </mxGeometry>
        </mxCell>
        <mxCell id="5p0k1yBP0SDuxStHFk_L-34" value="dob date NOT NULL" style="shape=partialRectangle;overflow=hidden;connectable=0;fillColor=none;top=0;left=0;bottom=0;right=0;align=left;spacingLeft=6;fontStyle=1;rounded=1;" vertex="1" parent="5p0k1yBP0SDuxStHFk_L-32">
          <mxGeometry x="30" width="278" height="30" as="geometry">
            <mxRectangle width="278" height="30" as="alternateBounds" />
          </mxGeometry>
        </mxCell>
        <mxCell id="5p0k1yBP0SDuxStHFk_L-35" style="shape=partialRectangle;collapsible=0;dropTarget=0;pointerEvents=0;fillColor=none;points=[[0,0.5],[1,0.5]];portConstraint=eastwest;top=0;left=0;right=0;bottom=0;fontStyle=1;rounded=1;" vertex="1" parent="C-vyLk0tnHw3VtMMgP7b-23">
          <mxGeometry y="180" width="308" height="30" as="geometry" />
        </mxCell>
        <mxCell id="5p0k1yBP0SDuxStHFk_L-36" style="shape=partialRectangle;overflow=hidden;connectable=0;fillColor=none;top=0;left=0;bottom=0;right=0;fontStyle=1;rounded=1;" vertex="1" parent="5p0k1yBP0SDuxStHFk_L-35">
          <mxGeometry width="30" height="30" as="geometry">
            <mxRectangle width="30" height="30" as="alternateBounds" />
          </mxGeometry>
        </mxCell>
        <mxCell id="5p0k1yBP0SDuxStHFk_L-37" style="shape=partialRectangle;overflow=hidden;connectable=0;fillColor=none;top=0;left=0;bottom=0;right=0;align=left;spacingLeft=6;fontStyle=1;rounded=1;" vertex="1" parent="5p0k1yBP0SDuxStHFk_L-35">
          <mxGeometry x="30" width="278" height="30" as="geometry">
            <mxRectangle width="278" height="30" as="alternateBounds" />
          </mxGeometry>
        </mxCell>
        <mxCell id="5Bc8UwKq1f_1eTB7SCyp-9" value="Product" style="shape=table;startSize=30;container=1;collapsible=1;childLayout=tableLayout;fixedRows=1;rowLines=0;align=center;resizeLast=1;fillColor=#f0f6ff;strokeColor=#6c8ebf;fontStyle=1;gradientColor=#0066FF;rounded=1;shadow=1;" parent="1" vertex="1">
          <mxGeometry x="193" y="541" width="306" height="216.93469238281273" as="geometry" />
        </mxCell>
        <mxCell id="5Bc8UwKq1f_1eTB7SCyp-10" value="" style="shape=partialRectangle;collapsible=0;dropTarget=0;pointerEvents=0;fillColor=none;points=[[0,0.5],[1,0.5]];portConstraint=eastwest;top=0;left=0;right=0;bottom=1;fontStyle=1;rounded=1;" parent="5Bc8UwKq1f_1eTB7SCyp-9" vertex="1">
          <mxGeometry y="30" width="306" height="30" as="geometry" />
        </mxCell>
        <mxCell id="5Bc8UwKq1f_1eTB7SCyp-11" value="PK" style="shape=partialRectangle;overflow=hidden;connectable=0;fillColor=none;top=0;left=0;bottom=0;right=0;fontStyle=1;rounded=1;" parent="5Bc8UwKq1f_1eTB7SCyp-10" vertex="1">
          <mxGeometry width="30" height="30" as="geometry">
            <mxRectangle width="30" height="30" as="alternateBounds" />
          </mxGeometry>
        </mxCell>
        <mxCell id="5Bc8UwKq1f_1eTB7SCyp-12" value="product_id int NOT NULL " style="shape=partialRectangle;overflow=hidden;connectable=0;fillColor=none;top=0;left=0;bottom=0;right=0;align=left;spacingLeft=6;fontStyle=1;rounded=1;" parent="5Bc8UwKq1f_1eTB7SCyp-10" vertex="1">
          <mxGeometry x="30" width="276" height="30" as="geometry">
            <mxRectangle width="276" height="30" as="alternateBounds" />
          </mxGeometry>
        </mxCell>
        <mxCell id="5Bc8UwKq1f_1eTB7SCyp-183" style="shape=partialRectangle;collapsible=0;dropTarget=0;pointerEvents=0;fillColor=none;points=[[0,0.5],[1,0.5]];portConstraint=eastwest;top=0;left=0;right=0;bottom=0;fontStyle=1;rounded=1;" parent="5Bc8UwKq1f_1eTB7SCyp-9" vertex="1">
          <mxGeometry y="60" width="306" height="30" as="geometry" />
        </mxCell>
        <mxCell id="5Bc8UwKq1f_1eTB7SCyp-184" value="" style="shape=partialRectangle;overflow=hidden;connectable=0;fillColor=none;top=0;left=0;bottom=0;right=0;fontStyle=1;rounded=1;" parent="5Bc8UwKq1f_1eTB7SCyp-183" vertex="1">
          <mxGeometry width="30" height="30" as="geometry">
            <mxRectangle width="30" height="30" as="alternateBounds" />
          </mxGeometry>
        </mxCell>
        <mxCell id="5Bc8UwKq1f_1eTB7SCyp-185" value="product_type char(200) NOT NULL" style="shape=partialRectangle;overflow=hidden;connectable=0;fillColor=none;top=0;left=0;bottom=0;right=0;align=left;spacingLeft=6;fontStyle=1;rounded=1;" parent="5Bc8UwKq1f_1eTB7SCyp-183" vertex="1">
          <mxGeometry x="30" width="276" height="30" as="geometry">
            <mxRectangle width="276" height="30" as="alternateBounds" />
          </mxGeometry>
        </mxCell>
        <mxCell id="5Bc8UwKq1f_1eTB7SCyp-13" value="" style="shape=partialRectangle;collapsible=0;dropTarget=0;pointerEvents=0;fillColor=none;points=[[0,0.5],[1,0.5]];portConstraint=eastwest;top=0;left=0;right=0;bottom=0;fontStyle=1;rounded=1;" parent="5Bc8UwKq1f_1eTB7SCyp-9" vertex="1">
          <mxGeometry y="90" width="306" height="31" as="geometry" />
        </mxCell>
        <mxCell id="5Bc8UwKq1f_1eTB7SCyp-14" value="" style="shape=partialRectangle;overflow=hidden;connectable=0;fillColor=none;top=0;left=0;bottom=0;right=0;fontStyle=1;rounded=1;" parent="5Bc8UwKq1f_1eTB7SCyp-13" vertex="1">
          <mxGeometry width="30" height="31" as="geometry">
            <mxRectangle width="30" height="31" as="alternateBounds" />
          </mxGeometry>
        </mxCell>
        <mxCell id="5Bc8UwKq1f_1eTB7SCyp-15" value="product_code char(50) NOT NULL" style="shape=partialRectangle;overflow=hidden;connectable=0;fillColor=none;top=0;left=0;bottom=0;right=0;align=left;spacingLeft=6;fontStyle=1;rounded=1;" parent="5Bc8UwKq1f_1eTB7SCyp-13" vertex="1">
          <mxGeometry x="30" width="276" height="31" as="geometry">
            <mxRectangle width="276" height="31" as="alternateBounds" />
          </mxGeometry>
        </mxCell>
        <mxCell id="5Bc8UwKq1f_1eTB7SCyp-45" value="" style="shape=partialRectangle;collapsible=0;dropTarget=0;pointerEvents=0;fillColor=none;points=[[0,0.5],[1,0.5]];portConstraint=eastwest;top=0;left=0;right=0;bottom=0;fontStyle=1;rounded=1;" parent="5Bc8UwKq1f_1eTB7SCyp-9" vertex="1">
          <mxGeometry y="121" width="306" height="26" as="geometry" />
        </mxCell>
        <mxCell id="5Bc8UwKq1f_1eTB7SCyp-46" value="" style="shape=partialRectangle;overflow=hidden;connectable=0;fillColor=none;top=0;left=0;bottom=0;right=0;fontStyle=1;rounded=1;" parent="5Bc8UwKq1f_1eTB7SCyp-45" vertex="1">
          <mxGeometry width="30" height="26" as="geometry">
            <mxRectangle width="30" height="26" as="alternateBounds" />
          </mxGeometry>
        </mxCell>
        <mxCell id="5Bc8UwKq1f_1eTB7SCyp-47" value="product_name char(50) NOT NULL" style="shape=partialRectangle;overflow=hidden;connectable=0;fillColor=none;top=0;left=0;bottom=0;right=0;align=left;spacingLeft=6;fontStyle=1;rounded=1;" parent="5Bc8UwKq1f_1eTB7SCyp-45" vertex="1">
          <mxGeometry x="30" width="276" height="26" as="geometry">
            <mxRectangle width="276" height="26" as="alternateBounds" />
          </mxGeometry>
        </mxCell>
        <mxCell id="5Bc8UwKq1f_1eTB7SCyp-49" style="shape=partialRectangle;collapsible=0;dropTarget=0;pointerEvents=0;fillColor=none;points=[[0,0.5],[1,0.5]];portConstraint=eastwest;top=0;left=0;right=0;bottom=0;fontStyle=1;rounded=1;" parent="5Bc8UwKq1f_1eTB7SCyp-9" vertex="1">
          <mxGeometry y="147" width="306" height="26" as="geometry" />
        </mxCell>
        <mxCell id="5Bc8UwKq1f_1eTB7SCyp-50" style="shape=partialRectangle;overflow=hidden;connectable=0;fillColor=none;top=0;left=0;bottom=0;right=0;fontStyle=1;rounded=1;" parent="5Bc8UwKq1f_1eTB7SCyp-49" vertex="1">
          <mxGeometry width="30" height="26" as="geometry">
            <mxRectangle width="30" height="26" as="alternateBounds" />
          </mxGeometry>
        </mxCell>
        <mxCell id="5Bc8UwKq1f_1eTB7SCyp-51" value="expiry_date DATE NULL" style="shape=partialRectangle;overflow=hidden;connectable=0;fillColor=none;top=0;left=0;bottom=0;right=0;align=left;spacingLeft=6;fontStyle=1;rounded=1;" parent="5Bc8UwKq1f_1eTB7SCyp-49" vertex="1">
          <mxGeometry x="30" width="276" height="26" as="geometry">
            <mxRectangle width="276" height="26" as="alternateBounds" />
          </mxGeometry>
        </mxCell>
        <mxCell id="c_tfulb-xMNJqZinGDg5-109" style="shape=partialRectangle;collapsible=0;dropTarget=0;pointerEvents=0;fillColor=none;points=[[0,0.5],[1,0.5]];portConstraint=eastwest;top=0;left=0;right=0;bottom=0;fontStyle=1;rounded=1;" parent="5Bc8UwKq1f_1eTB7SCyp-9" vertex="1">
          <mxGeometry y="173" width="306" height="26" as="geometry" />
        </mxCell>
        <mxCell id="c_tfulb-xMNJqZinGDg5-110" style="shape=partialRectangle;overflow=hidden;connectable=0;fillColor=none;top=0;left=0;bottom=0;right=0;fontStyle=1;rounded=1;" parent="c_tfulb-xMNJqZinGDg5-109" vertex="1">
          <mxGeometry width="30" height="26" as="geometry">
            <mxRectangle width="30" height="26" as="alternateBounds" />
          </mxGeometry>
        </mxCell>
        <mxCell id="c_tfulb-xMNJqZinGDg5-111" value="fresh_product bit NOT NULL" style="shape=partialRectangle;overflow=hidden;connectable=0;fillColor=none;top=0;left=0;bottom=0;right=0;align=left;spacingLeft=6;fontStyle=1;rounded=1;" parent="c_tfulb-xMNJqZinGDg5-109" vertex="1">
          <mxGeometry x="30" width="276" height="26" as="geometry">
            <mxRectangle width="276" height="26" as="alternateBounds" />
          </mxGeometry>
        </mxCell>
        <mxCell id="5Bc8UwKq1f_1eTB7SCyp-31" value="Offer Dim" style="shape=table;startSize=29;container=1;collapsible=1;childLayout=tableLayout;fixedRows=1;rowLines=0;align=center;resizeLast=1;fillColor=#f0f6ff;strokeColor=#6c8ebf;fontStyle=1;gradientColor=#0066FF;rounded=1;shadow=1;" parent="1" vertex="1">
          <mxGeometry x="204" y="802" width="306" height="278" as="geometry" />
        </mxCell>
        <mxCell id="5Bc8UwKq1f_1eTB7SCyp-32" value="" style="shape=partialRectangle;collapsible=0;dropTarget=0;pointerEvents=0;fillColor=none;points=[[0,0.5],[1,0.5]];portConstraint=eastwest;top=0;left=0;right=0;bottom=1;fontStyle=1;rounded=1;" parent="5Bc8UwKq1f_1eTB7SCyp-31" vertex="1">
          <mxGeometry y="29" width="306" height="30" as="geometry" />
        </mxCell>
        <mxCell id="5Bc8UwKq1f_1eTB7SCyp-33" value="PK" style="shape=partialRectangle;overflow=hidden;connectable=0;fillColor=none;top=0;left=0;bottom=0;right=0;fontStyle=1;rounded=1;" parent="5Bc8UwKq1f_1eTB7SCyp-32" vertex="1">
          <mxGeometry width="30" height="30" as="geometry">
            <mxRectangle width="30" height="30" as="alternateBounds" />
          </mxGeometry>
        </mxCell>
        <mxCell id="5Bc8UwKq1f_1eTB7SCyp-34" value="offer_id int NOT NULL " style="shape=partialRectangle;overflow=hidden;connectable=0;fillColor=none;top=0;left=0;bottom=0;right=0;align=left;spacingLeft=6;fontStyle=1;rounded=1;" parent="5Bc8UwKq1f_1eTB7SCyp-32" vertex="1">
          <mxGeometry x="30" width="276" height="30" as="geometry">
            <mxRectangle width="276" height="30" as="alternateBounds" />
          </mxGeometry>
        </mxCell>
        <mxCell id="5Bc8UwKq1f_1eTB7SCyp-35" value="" style="shape=partialRectangle;collapsible=0;dropTarget=0;pointerEvents=0;fillColor=none;points=[[0,0.5],[1,0.5]];portConstraint=eastwest;top=0;left=0;right=0;bottom=0;fontStyle=1;rounded=1;" parent="5Bc8UwKq1f_1eTB7SCyp-31" vertex="1">
          <mxGeometry y="59" width="306" height="30" as="geometry" />
        </mxCell>
        <mxCell id="5Bc8UwKq1f_1eTB7SCyp-36" value="FK" style="shape=partialRectangle;overflow=hidden;connectable=0;fillColor=none;top=0;left=0;bottom=0;right=0;fontStyle=1;rounded=1;" parent="5Bc8UwKq1f_1eTB7SCyp-35" vertex="1">
          <mxGeometry width="30" height="30" as="geometry">
            <mxRectangle width="30" height="30" as="alternateBounds" />
          </mxGeometry>
        </mxCell>
        <mxCell id="5Bc8UwKq1f_1eTB7SCyp-37" value="product_id bigint NOT NULL" style="shape=partialRectangle;overflow=hidden;connectable=0;fillColor=none;top=0;left=0;bottom=0;right=0;align=left;spacingLeft=6;fontStyle=1;rounded=1;" parent="5Bc8UwKq1f_1eTB7SCyp-35" vertex="1">
          <mxGeometry x="30" width="276" height="30" as="geometry">
            <mxRectangle width="276" height="30" as="alternateBounds" />
          </mxGeometry>
        </mxCell>
        <mxCell id="5p0k1yBP0SDuxStHFk_L-109" style="shape=partialRectangle;collapsible=0;dropTarget=0;pointerEvents=0;fillColor=none;points=[[0,0.5],[1,0.5]];portConstraint=eastwest;top=0;left=0;right=0;bottom=0;fontStyle=1;rounded=1;" vertex="1" parent="5Bc8UwKq1f_1eTB7SCyp-31">
          <mxGeometry y="89" width="306" height="30" as="geometry" />
        </mxCell>
        <mxCell id="5p0k1yBP0SDuxStHFk_L-110" value="FK" style="shape=partialRectangle;overflow=hidden;connectable=0;fillColor=none;top=0;left=0;bottom=0;right=0;fontStyle=1;rounded=1;" vertex="1" parent="5p0k1yBP0SDuxStHFk_L-109">
          <mxGeometry width="30" height="30" as="geometry">
            <mxRectangle width="30" height="30" as="alternateBounds" />
          </mxGeometry>
        </mxCell>
        <mxCell id="5p0k1yBP0SDuxStHFk_L-111" value="cust_type_id int NOT NULL" style="shape=partialRectangle;overflow=hidden;connectable=0;fillColor=none;top=0;left=0;bottom=0;right=0;align=left;spacingLeft=6;fontStyle=1;rounded=1;" vertex="1" parent="5p0k1yBP0SDuxStHFk_L-109">
          <mxGeometry x="30" width="276" height="30" as="geometry">
            <mxRectangle width="276" height="30" as="alternateBounds" />
          </mxGeometry>
        </mxCell>
        <mxCell id="5p0k1yBP0SDuxStHFk_L-134" style="shape=partialRectangle;collapsible=0;dropTarget=0;pointerEvents=0;fillColor=none;points=[[0,0.5],[1,0.5]];portConstraint=eastwest;top=0;left=0;right=0;bottom=0;fontStyle=1;rounded=1;" vertex="1" parent="5Bc8UwKq1f_1eTB7SCyp-31">
          <mxGeometry y="119" width="306" height="30" as="geometry" />
        </mxCell>
        <mxCell id="5p0k1yBP0SDuxStHFk_L-135" value="FK" style="shape=partialRectangle;overflow=hidden;connectable=0;fillColor=none;top=0;left=0;bottom=0;right=0;fontStyle=1;rounded=1;" vertex="1" parent="5p0k1yBP0SDuxStHFk_L-134">
          <mxGeometry width="30" height="30" as="geometry">
            <mxRectangle width="30" height="30" as="alternateBounds" />
          </mxGeometry>
        </mxCell>
        <mxCell id="5p0k1yBP0SDuxStHFk_L-136" value="gift_card_id int NOT NULL" style="shape=partialRectangle;overflow=hidden;connectable=0;fillColor=none;top=0;left=0;bottom=0;right=0;align=left;spacingLeft=6;fontStyle=1;rounded=1;" vertex="1" parent="5p0k1yBP0SDuxStHFk_L-134">
          <mxGeometry x="30" width="276" height="30" as="geometry">
            <mxRectangle width="276" height="30" as="alternateBounds" />
          </mxGeometry>
        </mxCell>
        <mxCell id="5p0k1yBP0SDuxStHFk_L-137" style="shape=partialRectangle;collapsible=0;dropTarget=0;pointerEvents=0;fillColor=none;points=[[0,0.5],[1,0.5]];portConstraint=eastwest;top=0;left=0;right=0;bottom=0;fontStyle=1;rounded=1;" vertex="1" parent="5Bc8UwKq1f_1eTB7SCyp-31">
          <mxGeometry y="149" width="306" height="30" as="geometry" />
        </mxCell>
        <mxCell id="5p0k1yBP0SDuxStHFk_L-138" style="shape=partialRectangle;overflow=hidden;connectable=0;fillColor=none;top=0;left=0;bottom=0;right=0;fontStyle=1;rounded=1;" vertex="1" parent="5p0k1yBP0SDuxStHFk_L-137">
          <mxGeometry width="30" height="30" as="geometry">
            <mxRectangle width="30" height="30" as="alternateBounds" />
          </mxGeometry>
        </mxCell>
        <mxCell id="5p0k1yBP0SDuxStHFk_L-139" value="name varchar(100) NOT NULL " style="shape=partialRectangle;overflow=hidden;connectable=0;fillColor=none;top=0;left=0;bottom=0;right=0;align=left;spacingLeft=6;fontStyle=1;rounded=1;" vertex="1" parent="5p0k1yBP0SDuxStHFk_L-137">
          <mxGeometry x="30" width="276" height="30" as="geometry">
            <mxRectangle width="276" height="30" as="alternateBounds" />
          </mxGeometry>
        </mxCell>
        <mxCell id="5Bc8UwKq1f_1eTB7SCyp-276" style="shape=partialRectangle;collapsible=0;dropTarget=0;pointerEvents=0;fillColor=none;points=[[0,0.5],[1,0.5]];portConstraint=eastwest;top=0;left=0;right=0;bottom=0;fontStyle=1;rounded=1;" parent="5Bc8UwKq1f_1eTB7SCyp-31" vertex="1">
          <mxGeometry y="179" width="306" height="30" as="geometry" />
        </mxCell>
        <mxCell id="5Bc8UwKq1f_1eTB7SCyp-277" style="shape=partialRectangle;overflow=hidden;connectable=0;fillColor=none;top=0;left=0;bottom=0;right=0;fontStyle=1;rounded=1;" parent="5Bc8UwKq1f_1eTB7SCyp-276" vertex="1">
          <mxGeometry width="30" height="30" as="geometry">
            <mxRectangle width="30" height="30" as="alternateBounds" />
          </mxGeometry>
        </mxCell>
        <mxCell id="5Bc8UwKq1f_1eTB7SCyp-278" value="start_dt date NOT NULL" style="shape=partialRectangle;overflow=hidden;connectable=0;fillColor=none;top=0;left=0;bottom=0;right=0;align=left;spacingLeft=6;fontStyle=1;rounded=1;" parent="5Bc8UwKq1f_1eTB7SCyp-276" vertex="1">
          <mxGeometry x="30" width="276" height="30" as="geometry">
            <mxRectangle width="276" height="30" as="alternateBounds" />
          </mxGeometry>
        </mxCell>
        <mxCell id="5Bc8UwKq1f_1eTB7SCyp-282" style="shape=partialRectangle;collapsible=0;dropTarget=0;pointerEvents=0;fillColor=none;points=[[0,0.5],[1,0.5]];portConstraint=eastwest;top=0;left=0;right=0;bottom=0;fontStyle=1;rounded=1;" parent="5Bc8UwKq1f_1eTB7SCyp-31" vertex="1">
          <mxGeometry y="209" width="306" height="30" as="geometry" />
        </mxCell>
        <mxCell id="5Bc8UwKq1f_1eTB7SCyp-283" style="shape=partialRectangle;overflow=hidden;connectable=0;fillColor=none;top=0;left=0;bottom=0;right=0;fontStyle=1;rounded=1;" parent="5Bc8UwKq1f_1eTB7SCyp-282" vertex="1">
          <mxGeometry width="30" height="30" as="geometry">
            <mxRectangle width="30" height="30" as="alternateBounds" />
          </mxGeometry>
        </mxCell>
        <mxCell id="5Bc8UwKq1f_1eTB7SCyp-284" value="end_dt date NOT NULL" style="shape=partialRectangle;overflow=hidden;connectable=0;fillColor=none;top=0;left=0;bottom=0;right=0;align=left;spacingLeft=6;fontStyle=1;rounded=1;" parent="5Bc8UwKq1f_1eTB7SCyp-282" vertex="1">
          <mxGeometry x="30" width="276" height="30" as="geometry">
            <mxRectangle width="276" height="30" as="alternateBounds" />
          </mxGeometry>
        </mxCell>
        <mxCell id="5p0k1yBP0SDuxStHFk_L-106" style="shape=partialRectangle;collapsible=0;dropTarget=0;pointerEvents=0;fillColor=none;points=[[0,0.5],[1,0.5]];portConstraint=eastwest;top=0;left=0;right=0;bottom=0;fontStyle=1;rounded=1;" vertex="1" parent="5Bc8UwKq1f_1eTB7SCyp-31">
          <mxGeometry y="239" width="306" height="30" as="geometry" />
        </mxCell>
        <mxCell id="5p0k1yBP0SDuxStHFk_L-107" style="shape=partialRectangle;overflow=hidden;connectable=0;fillColor=none;top=0;left=0;bottom=0;right=0;fontStyle=1;rounded=1;" vertex="1" parent="5p0k1yBP0SDuxStHFk_L-106">
          <mxGeometry width="30" height="30" as="geometry">
            <mxRectangle width="30" height="30" as="alternateBounds" />
          </mxGeometry>
        </mxCell>
        <mxCell id="5p0k1yBP0SDuxStHFk_L-108" value="discount decimal(18,2) NOT NULL" style="shape=partialRectangle;overflow=hidden;connectable=0;fillColor=none;top=0;left=0;bottom=0;right=0;align=left;spacingLeft=6;fontStyle=1;rounded=1;" vertex="1" parent="5p0k1yBP0SDuxStHFk_L-106">
          <mxGeometry x="30" width="276" height="30" as="geometry">
            <mxRectangle width="276" height="30" as="alternateBounds" />
          </mxGeometry>
        </mxCell>
        <mxCell id="5Bc8UwKq1f_1eTB7SCyp-38" value="Address" style="shape=table;startSize=30;container=1;collapsible=1;childLayout=tableLayout;fixedRows=1;rowLines=0;align=center;resizeLast=1;fillColor=#f0f6ff;strokeColor=#6c8ebf;fontStyle=1;gradientColor=#0066FF;rounded=1;shadow=1;swimlaneFillColor=none;" parent="1" vertex="1">
          <mxGeometry x="1635" y="425" width="306" height="270" as="geometry" />
        </mxCell>
        <mxCell id="5Bc8UwKq1f_1eTB7SCyp-39" value="" style="shape=partialRectangle;collapsible=0;dropTarget=0;pointerEvents=0;fillColor=none;points=[[0,0.5],[1,0.5]];portConstraint=eastwest;top=0;left=0;right=0;bottom=1;fontStyle=1;rounded=1;swimlaneFillColor=none;" parent="5Bc8UwKq1f_1eTB7SCyp-38" vertex="1">
          <mxGeometry y="30" width="306" height="30" as="geometry" />
        </mxCell>
        <mxCell id="5Bc8UwKq1f_1eTB7SCyp-40" value="PK" style="shape=partialRectangle;overflow=hidden;connectable=0;fillColor=none;top=0;left=0;bottom=0;right=0;fontStyle=1;rounded=1;swimlaneFillColor=none;" parent="5Bc8UwKq1f_1eTB7SCyp-39" vertex="1">
          <mxGeometry width="30" height="30" as="geometry">
            <mxRectangle width="30" height="30" as="alternateBounds" />
          </mxGeometry>
        </mxCell>
        <mxCell id="5Bc8UwKq1f_1eTB7SCyp-41" value="address_id int NOT NULL " style="shape=partialRectangle;overflow=hidden;connectable=0;fillColor=none;top=0;left=0;bottom=0;right=0;align=left;spacingLeft=6;fontStyle=1;rounded=1;swimlaneFillColor=none;" parent="5Bc8UwKq1f_1eTB7SCyp-39" vertex="1">
          <mxGeometry x="30" width="276" height="30" as="geometry">
            <mxRectangle width="276" height="30" as="alternateBounds" />
          </mxGeometry>
        </mxCell>
        <mxCell id="5Bc8UwKq1f_1eTB7SCyp-148" style="shape=partialRectangle;collapsible=0;dropTarget=0;pointerEvents=0;fillColor=none;points=[[0,0.5],[1,0.5]];portConstraint=eastwest;top=0;left=0;right=0;bottom=0;fontStyle=1;rounded=1;swimlaneFillColor=none;" parent="5Bc8UwKq1f_1eTB7SCyp-38" vertex="1">
          <mxGeometry y="60" width="306" height="30" as="geometry" />
        </mxCell>
        <mxCell id="5Bc8UwKq1f_1eTB7SCyp-149" value="FK" style="shape=partialRectangle;overflow=hidden;connectable=0;fillColor=none;top=0;left=0;bottom=0;right=0;fontStyle=1;rounded=1;swimlaneFillColor=none;" parent="5Bc8UwKq1f_1eTB7SCyp-148" vertex="1">
          <mxGeometry width="30" height="30" as="geometry">
            <mxRectangle width="30" height="30" as="alternateBounds" />
          </mxGeometry>
        </mxCell>
        <mxCell id="5Bc8UwKq1f_1eTB7SCyp-150" value="address_type_id int NOT NULL" style="shape=partialRectangle;overflow=hidden;connectable=0;fillColor=none;top=0;left=0;bottom=0;right=0;align=left;spacingLeft=6;fontStyle=1;rounded=1;swimlaneFillColor=none;" parent="5Bc8UwKq1f_1eTB7SCyp-148" vertex="1">
          <mxGeometry x="30" width="276" height="30" as="geometry">
            <mxRectangle width="276" height="30" as="alternateBounds" />
          </mxGeometry>
        </mxCell>
        <mxCell id="5Bc8UwKq1f_1eTB7SCyp-42" value="" style="shape=partialRectangle;collapsible=0;dropTarget=0;pointerEvents=0;fillColor=none;points=[[0,0.5],[1,0.5]];portConstraint=eastwest;top=0;left=0;right=0;bottom=0;fontStyle=1;rounded=1;swimlaneFillColor=none;" parent="5Bc8UwKq1f_1eTB7SCyp-38" vertex="1">
          <mxGeometry y="90" width="306" height="30" as="geometry" />
        </mxCell>
        <mxCell id="5Bc8UwKq1f_1eTB7SCyp-43" value="" style="shape=partialRectangle;overflow=hidden;connectable=0;fillColor=none;top=0;left=0;bottom=0;right=0;fontStyle=1;rounded=1;swimlaneFillColor=none;" parent="5Bc8UwKq1f_1eTB7SCyp-42" vertex="1">
          <mxGeometry width="30" height="30" as="geometry">
            <mxRectangle width="30" height="30" as="alternateBounds" />
          </mxGeometry>
        </mxCell>
        <mxCell id="5Bc8UwKq1f_1eTB7SCyp-44" value="address_Line1 char(50) NOT NULL" style="shape=partialRectangle;overflow=hidden;connectable=0;fillColor=none;top=0;left=0;bottom=0;right=0;align=left;spacingLeft=6;fontStyle=1;rounded=1;swimlaneFillColor=none;" parent="5Bc8UwKq1f_1eTB7SCyp-42" vertex="1">
          <mxGeometry x="30" width="276" height="30" as="geometry">
            <mxRectangle width="276" height="30" as="alternateBounds" />
          </mxGeometry>
        </mxCell>
        <mxCell id="5Bc8UwKq1f_1eTB7SCyp-144" style="shape=partialRectangle;collapsible=0;dropTarget=0;pointerEvents=0;fillColor=none;points=[[0,0.5],[1,0.5]];portConstraint=eastwest;top=0;left=0;right=0;bottom=0;fontStyle=1;rounded=1;swimlaneFillColor=none;" parent="5Bc8UwKq1f_1eTB7SCyp-38" vertex="1">
          <mxGeometry y="120" width="306" height="30" as="geometry" />
        </mxCell>
        <mxCell id="5Bc8UwKq1f_1eTB7SCyp-145" style="shape=partialRectangle;overflow=hidden;connectable=0;fillColor=none;top=0;left=0;bottom=0;right=0;fontStyle=1;rounded=1;swimlaneFillColor=none;" parent="5Bc8UwKq1f_1eTB7SCyp-144" vertex="1">
          <mxGeometry width="30" height="30" as="geometry">
            <mxRectangle width="30" height="30" as="alternateBounds" />
          </mxGeometry>
        </mxCell>
        <mxCell id="5Bc8UwKq1f_1eTB7SCyp-146" value="address_Line2 char(50) NOT NULL" style="shape=partialRectangle;overflow=hidden;connectable=0;fillColor=none;top=0;left=0;bottom=0;right=0;align=left;spacingLeft=6;fontStyle=1;rounded=1;swimlaneFillColor=none;" parent="5Bc8UwKq1f_1eTB7SCyp-144" vertex="1">
          <mxGeometry x="30" width="276" height="30" as="geometry">
            <mxRectangle width="276" height="30" as="alternateBounds" />
          </mxGeometry>
        </mxCell>
        <mxCell id="5Bc8UwKq1f_1eTB7SCyp-131" style="shape=partialRectangle;collapsible=0;dropTarget=0;pointerEvents=0;fillColor=none;points=[[0,0.5],[1,0.5]];portConstraint=eastwest;top=0;left=0;right=0;bottom=0;fontStyle=1;rounded=1;swimlaneFillColor=none;" parent="5Bc8UwKq1f_1eTB7SCyp-38" vertex="1">
          <mxGeometry y="150" width="306" height="30" as="geometry" />
        </mxCell>
        <mxCell id="5Bc8UwKq1f_1eTB7SCyp-132" style="shape=partialRectangle;overflow=hidden;connectable=0;fillColor=none;top=0;left=0;bottom=0;right=0;fontStyle=1;rounded=1;swimlaneFillColor=none;" parent="5Bc8UwKq1f_1eTB7SCyp-131" vertex="1">
          <mxGeometry width="30" height="30" as="geometry">
            <mxRectangle width="30" height="30" as="alternateBounds" />
          </mxGeometry>
        </mxCell>
        <mxCell id="5Bc8UwKq1f_1eTB7SCyp-133" value="postcode char(10) NOT NULL" style="shape=partialRectangle;overflow=hidden;connectable=0;fillColor=none;top=0;left=0;bottom=0;right=0;align=left;spacingLeft=6;fontStyle=1;rounded=1;swimlaneFillColor=none;" parent="5Bc8UwKq1f_1eTB7SCyp-131" vertex="1">
          <mxGeometry x="30" width="276" height="30" as="geometry">
            <mxRectangle width="276" height="30" as="alternateBounds" />
          </mxGeometry>
        </mxCell>
        <mxCell id="5Bc8UwKq1f_1eTB7SCyp-138" style="shape=partialRectangle;collapsible=0;dropTarget=0;pointerEvents=0;fillColor=none;points=[[0,0.5],[1,0.5]];portConstraint=eastwest;top=0;left=0;right=0;bottom=0;fontStyle=1;rounded=1;swimlaneFillColor=none;" parent="5Bc8UwKq1f_1eTB7SCyp-38" vertex="1">
          <mxGeometry y="180" width="306" height="30" as="geometry" />
        </mxCell>
        <mxCell id="5Bc8UwKq1f_1eTB7SCyp-139" style="shape=partialRectangle;overflow=hidden;connectable=0;fillColor=none;top=0;left=0;bottom=0;right=0;fontStyle=1;rounded=1;swimlaneFillColor=none;" parent="5Bc8UwKq1f_1eTB7SCyp-138" vertex="1">
          <mxGeometry width="30" height="30" as="geometry">
            <mxRectangle width="30" height="30" as="alternateBounds" />
          </mxGeometry>
        </mxCell>
        <mxCell id="5Bc8UwKq1f_1eTB7SCyp-140" value="county char(50) NOT NULL" style="shape=partialRectangle;overflow=hidden;connectable=0;fillColor=none;top=0;left=0;bottom=0;right=0;align=left;spacingLeft=6;fontStyle=1;rounded=1;swimlaneFillColor=none;" parent="5Bc8UwKq1f_1eTB7SCyp-138" vertex="1">
          <mxGeometry x="30" width="276" height="30" as="geometry">
            <mxRectangle width="276" height="30" as="alternateBounds" />
          </mxGeometry>
        </mxCell>
        <mxCell id="c_tfulb-xMNJqZinGDg5-153" style="shape=partialRectangle;collapsible=0;dropTarget=0;pointerEvents=0;fillColor=none;points=[[0,0.5],[1,0.5]];portConstraint=eastwest;top=0;left=0;right=0;bottom=0;fontStyle=1;rounded=1;swimlaneFillColor=none;" parent="5Bc8UwKq1f_1eTB7SCyp-38" vertex="1">
          <mxGeometry y="210" width="306" height="30" as="geometry" />
        </mxCell>
        <mxCell id="c_tfulb-xMNJqZinGDg5-154" style="shape=partialRectangle;overflow=hidden;connectable=0;fillColor=none;top=0;left=0;bottom=0;right=0;fontStyle=1;rounded=1;swimlaneFillColor=none;" parent="c_tfulb-xMNJqZinGDg5-153" vertex="1">
          <mxGeometry width="30" height="30" as="geometry">
            <mxRectangle width="30" height="30" as="alternateBounds" />
          </mxGeometry>
        </mxCell>
        <mxCell id="c_tfulb-xMNJqZinGDg5-155" value="region char(50) NOT NULL" style="shape=partialRectangle;overflow=hidden;connectable=0;fillColor=none;top=0;left=0;bottom=0;right=0;align=left;spacingLeft=6;fontStyle=1;rounded=1;swimlaneFillColor=none;" parent="c_tfulb-xMNJqZinGDg5-153" vertex="1">
          <mxGeometry x="30" width="276" height="30" as="geometry">
            <mxRectangle width="276" height="30" as="alternateBounds" />
          </mxGeometry>
        </mxCell>
        <mxCell id="5Bc8UwKq1f_1eTB7SCyp-141" style="shape=partialRectangle;collapsible=0;dropTarget=0;pointerEvents=0;fillColor=none;points=[[0,0.5],[1,0.5]];portConstraint=eastwest;top=0;left=0;right=0;bottom=0;fontStyle=1;rounded=1;swimlaneFillColor=none;" parent="5Bc8UwKq1f_1eTB7SCyp-38" vertex="1">
          <mxGeometry y="240" width="306" height="30" as="geometry" />
        </mxCell>
        <mxCell id="5Bc8UwKq1f_1eTB7SCyp-142" style="shape=partialRectangle;overflow=hidden;connectable=0;fillColor=none;top=0;left=0;bottom=0;right=0;fontStyle=1;rounded=1;swimlaneFillColor=none;" parent="5Bc8UwKq1f_1eTB7SCyp-141" vertex="1">
          <mxGeometry width="30" height="30" as="geometry">
            <mxRectangle width="30" height="30" as="alternateBounds" />
          </mxGeometry>
        </mxCell>
        <mxCell id="5Bc8UwKq1f_1eTB7SCyp-143" value="country char(50) NOT NULL" style="shape=partialRectangle;overflow=hidden;connectable=0;fillColor=none;top=0;left=0;bottom=0;right=0;align=left;spacingLeft=6;fontStyle=1;rounded=1;swimlaneFillColor=none;" parent="5Bc8UwKq1f_1eTB7SCyp-141" vertex="1">
          <mxGeometry x="30" width="276" height="30" as="geometry">
            <mxRectangle width="276" height="30" as="alternateBounds" />
          </mxGeometry>
        </mxCell>
        <mxCell id="5Bc8UwKq1f_1eTB7SCyp-55" value="Date" style="shape=table;startSize=30;container=1;collapsible=1;childLayout=tableLayout;fixedRows=1;rowLines=0;align=center;resizeLast=1;fillColor=#f0f6ff;strokeColor=#6c8ebf;fontStyle=1;gradientColor=#0066FF;rounded=1;shadow=1;" parent="1" vertex="1">
          <mxGeometry x="1160" y="861" width="306" height="214" as="geometry" />
        </mxCell>
        <mxCell id="5Bc8UwKq1f_1eTB7SCyp-56" value="" style="shape=partialRectangle;collapsible=0;dropTarget=0;pointerEvents=0;fillColor=none;points=[[0,0.5],[1,0.5]];portConstraint=eastwest;top=0;left=0;right=0;bottom=1;fontStyle=1;rounded=1;" parent="5Bc8UwKq1f_1eTB7SCyp-55" vertex="1">
          <mxGeometry y="30" width="306" height="30" as="geometry" />
        </mxCell>
        <mxCell id="5Bc8UwKq1f_1eTB7SCyp-57" value="PK" style="shape=partialRectangle;overflow=hidden;connectable=0;fillColor=none;top=0;left=0;bottom=0;right=0;fontStyle=1;rounded=1;" parent="5Bc8UwKq1f_1eTB7SCyp-56" vertex="1">
          <mxGeometry width="30" height="30" as="geometry">
            <mxRectangle width="30" height="30" as="alternateBounds" />
          </mxGeometry>
        </mxCell>
        <mxCell id="5Bc8UwKq1f_1eTB7SCyp-58" value="date_id int NOT NULL " style="shape=partialRectangle;overflow=hidden;connectable=0;fillColor=none;top=0;left=0;bottom=0;right=0;align=left;spacingLeft=6;fontStyle=1;rounded=1;" parent="5Bc8UwKq1f_1eTB7SCyp-56" vertex="1">
          <mxGeometry x="30" width="276" height="30" as="geometry">
            <mxRectangle width="276" height="30" as="alternateBounds" />
          </mxGeometry>
        </mxCell>
        <mxCell id="5Bc8UwKq1f_1eTB7SCyp-59" value="" style="shape=partialRectangle;collapsible=0;dropTarget=0;pointerEvents=0;fillColor=none;points=[[0,0.5],[1,0.5]];portConstraint=eastwest;top=0;left=0;right=0;bottom=0;fontStyle=1;rounded=1;" parent="5Bc8UwKq1f_1eTB7SCyp-55" vertex="1">
          <mxGeometry y="60" width="306" height="30" as="geometry" />
        </mxCell>
        <mxCell id="5Bc8UwKq1f_1eTB7SCyp-60" value="" style="shape=partialRectangle;overflow=hidden;connectable=0;fillColor=none;top=0;left=0;bottom=0;right=0;fontStyle=1;rounded=1;" parent="5Bc8UwKq1f_1eTB7SCyp-59" vertex="1">
          <mxGeometry width="30" height="30" as="geometry">
            <mxRectangle width="30" height="30" as="alternateBounds" />
          </mxGeometry>
        </mxCell>
        <mxCell id="5Bc8UwKq1f_1eTB7SCyp-61" value="day int NOT NULL" style="shape=partialRectangle;overflow=hidden;connectable=0;fillColor=none;top=0;left=0;bottom=0;right=0;align=left;spacingLeft=6;fontStyle=1;rounded=1;" parent="5Bc8UwKq1f_1eTB7SCyp-59" vertex="1">
          <mxGeometry x="30" width="276" height="30" as="geometry">
            <mxRectangle width="276" height="30" as="alternateBounds" />
          </mxGeometry>
        </mxCell>
        <mxCell id="5Bc8UwKq1f_1eTB7SCyp-213" style="shape=partialRectangle;collapsible=0;dropTarget=0;pointerEvents=0;fillColor=none;points=[[0,0.5],[1,0.5]];portConstraint=eastwest;top=0;left=0;right=0;bottom=0;fontStyle=1;rounded=1;" parent="5Bc8UwKq1f_1eTB7SCyp-55" vertex="1">
          <mxGeometry y="90" width="306" height="30" as="geometry" />
        </mxCell>
        <mxCell id="5Bc8UwKq1f_1eTB7SCyp-214" style="shape=partialRectangle;overflow=hidden;connectable=0;fillColor=none;top=0;left=0;bottom=0;right=0;fontStyle=1;rounded=1;" parent="5Bc8UwKq1f_1eTB7SCyp-213" vertex="1">
          <mxGeometry width="30" height="30" as="geometry">
            <mxRectangle width="30" height="30" as="alternateBounds" />
          </mxGeometry>
        </mxCell>
        <mxCell id="5Bc8UwKq1f_1eTB7SCyp-215" value="month int NOT NULL" style="shape=partialRectangle;overflow=hidden;connectable=0;fillColor=none;top=0;left=0;bottom=0;right=0;align=left;spacingLeft=6;fontStyle=1;rounded=1;" parent="5Bc8UwKq1f_1eTB7SCyp-213" vertex="1">
          <mxGeometry x="30" width="276" height="30" as="geometry">
            <mxRectangle width="276" height="30" as="alternateBounds" />
          </mxGeometry>
        </mxCell>
        <mxCell id="5Bc8UwKq1f_1eTB7SCyp-210" style="shape=partialRectangle;collapsible=0;dropTarget=0;pointerEvents=0;fillColor=none;points=[[0,0.5],[1,0.5]];portConstraint=eastwest;top=0;left=0;right=0;bottom=0;fontStyle=1;rounded=1;" parent="5Bc8UwKq1f_1eTB7SCyp-55" vertex="1">
          <mxGeometry y="120" width="306" height="30" as="geometry" />
        </mxCell>
        <mxCell id="5Bc8UwKq1f_1eTB7SCyp-211" style="shape=partialRectangle;overflow=hidden;connectable=0;fillColor=none;top=0;left=0;bottom=0;right=0;fontStyle=1;rounded=1;" parent="5Bc8UwKq1f_1eTB7SCyp-210" vertex="1">
          <mxGeometry width="30" height="30" as="geometry">
            <mxRectangle width="30" height="30" as="alternateBounds" />
          </mxGeometry>
        </mxCell>
        <mxCell id="5Bc8UwKq1f_1eTB7SCyp-212" value="year int NOT NULL" style="shape=partialRectangle;overflow=hidden;connectable=0;fillColor=none;top=0;left=0;bottom=0;right=0;align=left;spacingLeft=6;fontStyle=1;rounded=1;" parent="5Bc8UwKq1f_1eTB7SCyp-210" vertex="1">
          <mxGeometry x="30" width="276" height="30" as="geometry">
            <mxRectangle width="276" height="30" as="alternateBounds" />
          </mxGeometry>
        </mxCell>
        <mxCell id="5Bc8UwKq1f_1eTB7SCyp-216" style="shape=partialRectangle;collapsible=0;dropTarget=0;pointerEvents=0;fillColor=none;points=[[0,0.5],[1,0.5]];portConstraint=eastwest;top=0;left=0;right=0;bottom=0;fontStyle=1;rounded=1;" parent="5Bc8UwKq1f_1eTB7SCyp-55" vertex="1">
          <mxGeometry y="150" width="306" height="30" as="geometry" />
        </mxCell>
        <mxCell id="5Bc8UwKq1f_1eTB7SCyp-217" style="shape=partialRectangle;overflow=hidden;connectable=0;fillColor=none;top=0;left=0;bottom=0;right=0;fontStyle=1;rounded=1;" parent="5Bc8UwKq1f_1eTB7SCyp-216" vertex="1">
          <mxGeometry width="30" height="30" as="geometry">
            <mxRectangle width="30" height="30" as="alternateBounds" />
          </mxGeometry>
        </mxCell>
        <mxCell id="5Bc8UwKq1f_1eTB7SCyp-218" value="working_day bit NOT NULL" style="shape=partialRectangle;overflow=hidden;connectable=0;fillColor=none;top=0;left=0;bottom=0;right=0;align=left;spacingLeft=6;fontStyle=1;rounded=1;" parent="5Bc8UwKq1f_1eTB7SCyp-216" vertex="1">
          <mxGeometry x="30" width="276" height="30" as="geometry">
            <mxRectangle width="276" height="30" as="alternateBounds" />
          </mxGeometry>
        </mxCell>
        <mxCell id="5Bc8UwKq1f_1eTB7SCyp-219" style="shape=partialRectangle;collapsible=0;dropTarget=0;pointerEvents=0;fillColor=none;points=[[0,0.5],[1,0.5]];portConstraint=eastwest;top=0;left=0;right=0;bottom=0;fontStyle=1;rounded=1;" parent="5Bc8UwKq1f_1eTB7SCyp-55" vertex="1">
          <mxGeometry y="180" width="306" height="30" as="geometry" />
        </mxCell>
        <mxCell id="5Bc8UwKq1f_1eTB7SCyp-220" style="shape=partialRectangle;overflow=hidden;connectable=0;fillColor=none;top=0;left=0;bottom=0;right=0;fontStyle=1;rounded=1;" parent="5Bc8UwKq1f_1eTB7SCyp-219" vertex="1">
          <mxGeometry width="30" height="30" as="geometry">
            <mxRectangle width="30" height="30" as="alternateBounds" />
          </mxGeometry>
        </mxCell>
        <mxCell id="5Bc8UwKq1f_1eTB7SCyp-221" value="[...]" style="shape=partialRectangle;overflow=hidden;connectable=0;fillColor=none;top=0;left=0;bottom=0;right=0;align=left;spacingLeft=6;fontStyle=1;rounded=1;" parent="5Bc8UwKq1f_1eTB7SCyp-219" vertex="1">
          <mxGeometry x="30" width="276" height="30" as="geometry">
            <mxRectangle width="276" height="30" as="alternateBounds" />
          </mxGeometry>
        </mxCell>
        <mxCell id="5Bc8UwKq1f_1eTB7SCyp-82" value="&lt;font style=&quot;font-size: 18px;&quot;&gt;&lt;u style=&quot;&quot;&gt;&amp;gt;General Technical Considerations&lt;/u&gt;&lt;/font&gt;&lt;div style=&quot;font-size: 18px;&quot;&gt;&lt;font style=&quot;font-size: 18px;&quot;&gt;&lt;br&gt;&lt;/font&gt;&lt;/div&gt;&lt;blockquote style=&quot;margin: 0 0 0 40px; border: none; padding: 0px;&quot;&gt;&lt;div style=&quot;font-size: 18px;&quot;&gt;&lt;font style=&quot;font-size: 18px;&quot;&gt;0) Customer journey wise, this solution is incomplete as the post-sales and customer service segments are missing. It would be recommendable to track for a customer the number and nature of customer service tickes/incidents opened (e.g. technical problems, billing issues, etc.) as well as post-resolution surveys, the customer reviews from web-aggregators like Google or Trustpilot (via APIs), requests to switch supplier and for which reason (customer retention segment), if they recommended the supplier to a friend over time, etc.&lt;/font&gt;&lt;/div&gt;&lt;div style=&quot;font-size: 18px;&quot;&gt;All of these sources could be translated into ad-hoc dimensions and feed the Customer Satisfaction Fact table.&lt;/div&gt;&lt;div style=&quot;font-size: 18px;&quot;&gt;Another potential bit to add to a customer journey is to enable the pre-sales phase where the telephony system receive calls or the web-site receive visits and it is browsed by potential customers to enquiry about the services and offers available. Also, if a customer has initiated the subscription to a service but never finished for some reason, etc. These information would all help the company to improve the activation rate metrics and marketing effectiveness.&amp;nbsp;&lt;/div&gt;&lt;div style=&quot;font-size: 18px;&quot;&gt;1) To enable drill-down capability, the fact tables have been designed at an atomic data level&lt;/div&gt;&lt;div style=&quot;font-size: 18px;&quot;&gt;&lt;br&gt;&lt;/div&gt;&lt;/blockquote&gt;&lt;div style=&quot;font-size: 18px;&quot;&gt;&lt;br&gt;&lt;/div&gt;&lt;div style=&quot;font-size: 17px;&quot;&gt;&lt;u style=&quot;font-size: 18px;&quot;&gt;&amp;gt;E/R Diagram Considerations:&lt;/u&gt;&lt;br&gt;&lt;/div&gt;&lt;div style=&quot;&quot;&gt;&lt;ul style=&quot;&quot;&gt;&lt;li style=&quot;font-size: 17px;&quot;&gt;&lt;span style=&quot;font-size: 18px;&quot;&gt;Customer Satisfaction Fact: This table can be aggregated at the reporting level (e.g. PowerBI) to determine the average, max, and min satisfaction score within specific date ranges. A dimension for external reviews could be added and linked to this fact table (customer_id=-1 if the customer is not recognizable). Product Id is not essential but useful to enable an ad-hoc reporting filter and track the satisfaction rate by product.&lt;/span&gt;&lt;/li&gt;&lt;li style=&quot;font-size: 17px;&quot;&gt;&lt;span style=&quot;font-size: 18px;&quot;&gt;Survey Dim: This table may be populated using different source systems (phone, web, text, etc.) and at different source events (e.g. initial subscription, issue resolution, change of product, exit survey, etc.). The score is simplified here (e.g. 1 to 5) but different score ranges might be used over time and from different systems and they would be held in a dedicated table score codification table.&lt;/span&gt;&lt;/li&gt;&lt;li style=&quot;font-size: 17px;&quot;&gt;&lt;span style=&quot;font-size: 18px;&quot;&gt;Offer Dim: An offer can be linked to a specific product, a customer type/category, and a gift card and/or a discount (it&#39;s one or the other).&amp;nbsp;&lt;/span&gt;&lt;/li&gt;&lt;/ul&gt;&lt;/div&gt;" style="text;html=1;align=left;verticalAlign=middle;whiteSpace=wrap;rounded=0;fontFamily=Helvetica;fontSize=12;fontColor=default;fontStyle=1;" parent="1" vertex="1">
          <mxGeometry x="39" y="1488" width="1893" height="481" as="geometry" />
        </mxCell>
        <mxCell id="5Bc8UwKq1f_1eTB7SCyp-121" value="Survey Dim" style="shape=table;startSize=29;container=1;collapsible=1;childLayout=tableLayout;fixedRows=1;rowLines=0;align=center;resizeLast=1;fillColor=#f0f6ff;strokeColor=#6c8ebf;fontStyle=1;gradientColor=#0066FF;rounded=1;shadow=1;" parent="1" vertex="1">
          <mxGeometry x="1136" y="1129" width="306" height="210" as="geometry" />
        </mxCell>
        <mxCell id="5Bc8UwKq1f_1eTB7SCyp-122" value="" style="shape=partialRectangle;collapsible=0;dropTarget=0;pointerEvents=0;fillColor=none;points=[[0,0.5],[1,0.5]];portConstraint=eastwest;top=0;left=0;right=0;bottom=1;fontStyle=1;rounded=1;" parent="5Bc8UwKq1f_1eTB7SCyp-121" vertex="1">
          <mxGeometry y="29" width="306" height="30" as="geometry" />
        </mxCell>
        <mxCell id="5Bc8UwKq1f_1eTB7SCyp-123" value="PK" style="shape=partialRectangle;overflow=hidden;connectable=0;fillColor=none;top=0;left=0;bottom=0;right=0;fontStyle=1;rounded=1;" parent="5Bc8UwKq1f_1eTB7SCyp-122" vertex="1">
          <mxGeometry width="30" height="30" as="geometry">
            <mxRectangle width="30" height="30" as="alternateBounds" />
          </mxGeometry>
        </mxCell>
        <mxCell id="5Bc8UwKq1f_1eTB7SCyp-124" value="survey_id int NOT NULL " style="shape=partialRectangle;overflow=hidden;connectable=0;fillColor=none;top=0;left=0;bottom=0;right=0;align=left;spacingLeft=6;fontStyle=1;rounded=1;" parent="5Bc8UwKq1f_1eTB7SCyp-122" vertex="1">
          <mxGeometry x="30" width="276" height="30" as="geometry">
            <mxRectangle width="276" height="30" as="alternateBounds" />
          </mxGeometry>
        </mxCell>
        <mxCell id="5Bc8UwKq1f_1eTB7SCyp-125" value="" style="shape=partialRectangle;collapsible=0;dropTarget=0;pointerEvents=0;fillColor=none;points=[[0,0.5],[1,0.5]];portConstraint=eastwest;top=0;left=0;right=0;bottom=0;fontStyle=1;rounded=1;" parent="5Bc8UwKq1f_1eTB7SCyp-121" vertex="1">
          <mxGeometry y="59" width="306" height="31" as="geometry" />
        </mxCell>
        <mxCell id="5Bc8UwKq1f_1eTB7SCyp-126" value="FK" style="shape=partialRectangle;overflow=hidden;connectable=0;fillColor=none;top=0;left=0;bottom=0;right=0;fontStyle=1;rounded=1;" parent="5Bc8UwKq1f_1eTB7SCyp-125" vertex="1">
          <mxGeometry width="30" height="31" as="geometry">
            <mxRectangle width="30" height="31" as="alternateBounds" />
          </mxGeometry>
        </mxCell>
        <mxCell id="5Bc8UwKq1f_1eTB7SCyp-127" value="customer_id bigint NOT NULL" style="shape=partialRectangle;overflow=hidden;connectable=0;fillColor=none;top=0;left=0;bottom=0;right=0;align=left;spacingLeft=6;fontStyle=1;rounded=1;" parent="5Bc8UwKq1f_1eTB7SCyp-125" vertex="1">
          <mxGeometry x="30" width="276" height="31" as="geometry">
            <mxRectangle width="276" height="31" as="alternateBounds" />
          </mxGeometry>
        </mxCell>
        <mxCell id="5Bc8UwKq1f_1eTB7SCyp-207" style="shape=partialRectangle;collapsible=0;dropTarget=0;pointerEvents=0;fillColor=none;points=[[0,0.5],[1,0.5]];portConstraint=eastwest;top=0;left=0;right=0;bottom=0;fontStyle=1;rounded=1;" parent="5Bc8UwKq1f_1eTB7SCyp-121" vertex="1">
          <mxGeometry y="90" width="306" height="30" as="geometry" />
        </mxCell>
        <mxCell id="5Bc8UwKq1f_1eTB7SCyp-208" style="shape=partialRectangle;overflow=hidden;connectable=0;fillColor=none;top=0;left=0;bottom=0;right=0;fontStyle=1;rounded=1;" parent="5Bc8UwKq1f_1eTB7SCyp-207" vertex="1">
          <mxGeometry width="30" height="30" as="geometry">
            <mxRectangle width="30" height="30" as="alternateBounds" />
          </mxGeometry>
        </mxCell>
        <mxCell id="5Bc8UwKq1f_1eTB7SCyp-209" value="score int NOT NULL" style="shape=partialRectangle;overflow=hidden;connectable=0;fillColor=none;top=0;left=0;bottom=0;right=0;align=left;spacingLeft=6;fontStyle=1;rounded=1;" parent="5Bc8UwKq1f_1eTB7SCyp-207" vertex="1">
          <mxGeometry x="30" width="276" height="30" as="geometry">
            <mxRectangle width="276" height="30" as="alternateBounds" />
          </mxGeometry>
        </mxCell>
        <mxCell id="5Bc8UwKq1f_1eTB7SCyp-266" style="shape=partialRectangle;collapsible=0;dropTarget=0;pointerEvents=0;fillColor=none;points=[[0,0.5],[1,0.5]];portConstraint=eastwest;top=0;left=0;right=0;bottom=0;fontStyle=1;rounded=1;" parent="5Bc8UwKq1f_1eTB7SCyp-121" vertex="1">
          <mxGeometry y="120" width="306" height="30" as="geometry" />
        </mxCell>
        <mxCell id="5Bc8UwKq1f_1eTB7SCyp-267" style="shape=partialRectangle;overflow=hidden;connectable=0;fillColor=none;top=0;left=0;bottom=0;right=0;fontStyle=1;rounded=1;" parent="5Bc8UwKq1f_1eTB7SCyp-266" vertex="1">
          <mxGeometry width="30" height="30" as="geometry">
            <mxRectangle width="30" height="30" as="alternateBounds" />
          </mxGeometry>
        </mxCell>
        <mxCell id="5Bc8UwKq1f_1eTB7SCyp-268" value="source_system varchar(50) NOT NULL" style="shape=partialRectangle;overflow=hidden;connectable=0;fillColor=none;top=0;left=0;bottom=0;right=0;align=left;spacingLeft=6;fontStyle=1;rounded=1;" parent="5Bc8UwKq1f_1eTB7SCyp-266" vertex="1">
          <mxGeometry x="30" width="276" height="30" as="geometry">
            <mxRectangle width="276" height="30" as="alternateBounds" />
          </mxGeometry>
        </mxCell>
        <mxCell id="5p0k1yBP0SDuxStHFk_L-103" style="shape=partialRectangle;collapsible=0;dropTarget=0;pointerEvents=0;fillColor=none;points=[[0,0.5],[1,0.5]];portConstraint=eastwest;top=0;left=0;right=0;bottom=0;fontStyle=1;rounded=1;" vertex="1" parent="5Bc8UwKq1f_1eTB7SCyp-121">
          <mxGeometry y="150" width="306" height="30" as="geometry" />
        </mxCell>
        <mxCell id="5p0k1yBP0SDuxStHFk_L-104" style="shape=partialRectangle;overflow=hidden;connectable=0;fillColor=none;top=0;left=0;bottom=0;right=0;fontStyle=1;rounded=1;" vertex="1" parent="5p0k1yBP0SDuxStHFk_L-103">
          <mxGeometry width="30" height="30" as="geometry">
            <mxRectangle width="30" height="30" as="alternateBounds" />
          </mxGeometry>
        </mxCell>
        <mxCell id="5p0k1yBP0SDuxStHFk_L-105" value="source_event varchar(200) NOT NULL" style="shape=partialRectangle;overflow=hidden;connectable=0;fillColor=none;top=0;left=0;bottom=0;right=0;align=left;spacingLeft=6;fontStyle=1;rounded=1;" vertex="1" parent="5p0k1yBP0SDuxStHFk_L-103">
          <mxGeometry x="30" width="276" height="30" as="geometry">
            <mxRectangle width="276" height="30" as="alternateBounds" />
          </mxGeometry>
        </mxCell>
        <mxCell id="5p0k1yBP0SDuxStHFk_L-100" style="shape=partialRectangle;collapsible=0;dropTarget=0;pointerEvents=0;fillColor=none;points=[[0,0.5],[1,0.5]];portConstraint=eastwest;top=0;left=0;right=0;bottom=0;fontStyle=1;rounded=1;" vertex="1" parent="5Bc8UwKq1f_1eTB7SCyp-121">
          <mxGeometry y="180" width="306" height="30" as="geometry" />
        </mxCell>
        <mxCell id="5p0k1yBP0SDuxStHFk_L-101" style="shape=partialRectangle;overflow=hidden;connectable=0;fillColor=none;top=0;left=0;bottom=0;right=0;fontStyle=1;rounded=1;" vertex="1" parent="5p0k1yBP0SDuxStHFk_L-100">
          <mxGeometry width="30" height="30" as="geometry">
            <mxRectangle width="30" height="30" as="alternateBounds" />
          </mxGeometry>
        </mxCell>
        <mxCell id="5p0k1yBP0SDuxStHFk_L-102" value="comments varchar(4000) NULL" style="shape=partialRectangle;overflow=hidden;connectable=0;fillColor=none;top=0;left=0;bottom=0;right=0;align=left;spacingLeft=6;fontStyle=1;rounded=1;" vertex="1" parent="5p0k1yBP0SDuxStHFk_L-100">
          <mxGeometry x="30" width="276" height="30" as="geometry">
            <mxRectangle width="276" height="30" as="alternateBounds" />
          </mxGeometry>
        </mxCell>
        <mxCell id="5Bc8UwKq1f_1eTB7SCyp-151" value="Sales_Area_Dim" style="shape=table;startSize=30;container=1;collapsible=1;childLayout=tableLayout;fixedRows=1;rowLines=0;align=center;resizeLast=1;fillColor=#f0f6ff;strokeColor=#6c8ebf;fontStyle=1;gradientColor=#0066FF;rounded=1;shadow=1;" parent="1" vertex="1">
          <mxGeometry x="1635" y="253" width="306" height="120" as="geometry" />
        </mxCell>
        <mxCell id="5Bc8UwKq1f_1eTB7SCyp-152" value="" style="shape=partialRectangle;collapsible=0;dropTarget=0;pointerEvents=0;fillColor=none;points=[[0,0.5],[1,0.5]];portConstraint=eastwest;top=0;left=0;right=0;bottom=1;fontStyle=1;rounded=1;" parent="5Bc8UwKq1f_1eTB7SCyp-151" vertex="1">
          <mxGeometry y="30" width="306" height="30" as="geometry" />
        </mxCell>
        <mxCell id="5Bc8UwKq1f_1eTB7SCyp-153" value="PK" style="shape=partialRectangle;overflow=hidden;connectable=0;fillColor=none;top=0;left=0;bottom=0;right=0;fontStyle=1;rounded=1;" parent="5Bc8UwKq1f_1eTB7SCyp-152" vertex="1">
          <mxGeometry width="30" height="30" as="geometry">
            <mxRectangle width="30" height="30" as="alternateBounds" />
          </mxGeometry>
        </mxCell>
        <mxCell id="5Bc8UwKq1f_1eTB7SCyp-154" value="address_type_id int NOT NULL " style="shape=partialRectangle;overflow=hidden;connectable=0;fillColor=none;top=0;left=0;bottom=0;right=0;align=left;spacingLeft=6;fontStyle=1;rounded=1;" parent="5Bc8UwKq1f_1eTB7SCyp-152" vertex="1">
          <mxGeometry x="30" width="276" height="30" as="geometry">
            <mxRectangle width="276" height="30" as="alternateBounds" />
          </mxGeometry>
        </mxCell>
        <mxCell id="5Bc8UwKq1f_1eTB7SCyp-155" style="shape=partialRectangle;collapsible=0;dropTarget=0;pointerEvents=0;fillColor=none;points=[[0,0.5],[1,0.5]];portConstraint=eastwest;top=0;left=0;right=0;bottom=0;fontStyle=1;rounded=1;" parent="5Bc8UwKq1f_1eTB7SCyp-151" vertex="1">
          <mxGeometry y="60" width="306" height="30" as="geometry" />
        </mxCell>
        <mxCell id="5Bc8UwKq1f_1eTB7SCyp-156" style="shape=partialRectangle;overflow=hidden;connectable=0;fillColor=none;top=0;left=0;bottom=0;right=0;fontStyle=1;rounded=1;" parent="5Bc8UwKq1f_1eTB7SCyp-155" vertex="1">
          <mxGeometry width="30" height="30" as="geometry">
            <mxRectangle width="30" height="30" as="alternateBounds" />
          </mxGeometry>
        </mxCell>
        <mxCell id="5Bc8UwKq1f_1eTB7SCyp-157" value="address_type_name int NOT NULL" style="shape=partialRectangle;overflow=hidden;connectable=0;fillColor=none;top=0;left=0;bottom=0;right=0;align=left;spacingLeft=6;fontStyle=1;rounded=1;" parent="5Bc8UwKq1f_1eTB7SCyp-155" vertex="1">
          <mxGeometry x="30" width="276" height="30" as="geometry">
            <mxRectangle width="276" height="30" as="alternateBounds" />
          </mxGeometry>
        </mxCell>
        <mxCell id="5Bc8UwKq1f_1eTB7SCyp-158" value="" style="shape=partialRectangle;collapsible=0;dropTarget=0;pointerEvents=0;fillColor=none;points=[[0,0.5],[1,0.5]];portConstraint=eastwest;top=0;left=0;right=0;bottom=0;fontStyle=1;rounded=1;" parent="5Bc8UwKq1f_1eTB7SCyp-151" vertex="1">
          <mxGeometry y="90" width="306" height="30" as="geometry" />
        </mxCell>
        <mxCell id="5Bc8UwKq1f_1eTB7SCyp-159" value="" style="shape=partialRectangle;overflow=hidden;connectable=0;fillColor=none;top=0;left=0;bottom=0;right=0;fontStyle=1;rounded=1;" parent="5Bc8UwKq1f_1eTB7SCyp-158" vertex="1">
          <mxGeometry width="30" height="30" as="geometry">
            <mxRectangle width="30" height="30" as="alternateBounds" />
          </mxGeometry>
        </mxCell>
        <mxCell id="5Bc8UwKq1f_1eTB7SCyp-160" value="address_type_desc char(50) NOT NULL" style="shape=partialRectangle;overflow=hidden;connectable=0;fillColor=none;top=0;left=0;bottom=0;right=0;align=left;spacingLeft=6;fontStyle=1;rounded=1;" parent="5Bc8UwKq1f_1eTB7SCyp-158" vertex="1">
          <mxGeometry x="30" width="276" height="30" as="geometry">
            <mxRectangle width="276" height="30" as="alternateBounds" />
          </mxGeometry>
        </mxCell>
        <mxCell id="c_tfulb-xMNJqZinGDg5-26" value="Sales Fact" style="shape=table;startSize=33;container=1;collapsible=1;childLayout=tableLayout;fixedRows=1;rowLines=0;align=center;resizeLast=1;fillColor=#f8cecc;strokeColor=#b85450;fontStyle=1;rounded=1;shadow=1;" parent="1" vertex="1">
          <mxGeometry x="679" y="418.72" width="331" height="314.56" as="geometry" />
        </mxCell>
        <mxCell id="c_tfulb-xMNJqZinGDg5-27" value="" style="shape=partialRectangle;collapsible=0;dropTarget=0;pointerEvents=0;fillColor=none;points=[[0,0.5],[1,0.5]];portConstraint=eastwest;top=0;left=0;right=0;bottom=1;fontStyle=1;rounded=1;" parent="c_tfulb-xMNJqZinGDg5-26" vertex="1">
          <mxGeometry y="33" width="331" height="30" as="geometry" />
        </mxCell>
        <mxCell id="c_tfulb-xMNJqZinGDg5-28" value="PK" style="shape=partialRectangle;overflow=hidden;connectable=0;fillColor=none;top=0;left=0;bottom=0;right=0;fontStyle=1;rounded=1;" parent="c_tfulb-xMNJqZinGDg5-27" vertex="1">
          <mxGeometry width="30" height="30" as="geometry">
            <mxRectangle width="30" height="30" as="alternateBounds" />
          </mxGeometry>
        </mxCell>
        <mxCell id="c_tfulb-xMNJqZinGDg5-29" value="order_id bigint NOT NULL " style="shape=partialRectangle;overflow=hidden;connectable=0;fillColor=none;top=0;left=0;bottom=0;right=0;align=left;spacingLeft=6;fontStyle=1;rounded=1;" parent="c_tfulb-xMNJqZinGDg5-27" vertex="1">
          <mxGeometry x="30" width="301" height="30" as="geometry">
            <mxRectangle width="301" height="30" as="alternateBounds" />
          </mxGeometry>
        </mxCell>
        <mxCell id="c_tfulb-xMNJqZinGDg5-33" style="shape=partialRectangle;collapsible=0;dropTarget=0;pointerEvents=0;fillColor=none;points=[[0,0.5],[1,0.5]];portConstraint=eastwest;top=0;left=0;right=0;bottom=0;fontStyle=1;rounded=1;" parent="c_tfulb-xMNJqZinGDg5-26" vertex="1">
          <mxGeometry y="63" width="331" height="30" as="geometry" />
        </mxCell>
        <mxCell id="c_tfulb-xMNJqZinGDg5-34" value="FK" style="shape=partialRectangle;overflow=hidden;connectable=0;fillColor=none;top=0;left=0;bottom=0;right=0;fontStyle=1;rounded=1;" parent="c_tfulb-xMNJqZinGDg5-33" vertex="1">
          <mxGeometry width="30" height="30" as="geometry">
            <mxRectangle width="30" height="30" as="alternateBounds" />
          </mxGeometry>
        </mxCell>
        <mxCell id="c_tfulb-xMNJqZinGDg5-35" value="product_id bigint NOT NULL" style="shape=partialRectangle;overflow=hidden;connectable=0;fillColor=none;top=0;left=0;bottom=0;right=0;align=left;spacingLeft=6;fontStyle=1;rounded=1;" parent="c_tfulb-xMNJqZinGDg5-33" vertex="1">
          <mxGeometry x="30" width="301" height="30" as="geometry">
            <mxRectangle width="301" height="30" as="alternateBounds" />
          </mxGeometry>
        </mxCell>
        <mxCell id="c_tfulb-xMNJqZinGDg5-65" style="shape=partialRectangle;collapsible=0;dropTarget=0;pointerEvents=0;fillColor=none;points=[[0,0.5],[1,0.5]];portConstraint=eastwest;top=0;left=0;right=0;bottom=0;fontStyle=1;rounded=1;" parent="c_tfulb-xMNJqZinGDg5-26" vertex="1">
          <mxGeometry y="93" width="331" height="30" as="geometry" />
        </mxCell>
        <mxCell id="c_tfulb-xMNJqZinGDg5-66" value="FK" style="shape=partialRectangle;overflow=hidden;connectable=0;fillColor=none;top=0;left=0;bottom=0;right=0;fontStyle=1;rounded=1;" parent="c_tfulb-xMNJqZinGDg5-65" vertex="1">
          <mxGeometry width="30" height="30" as="geometry">
            <mxRectangle width="30" height="30" as="alternateBounds" />
          </mxGeometry>
        </mxCell>
        <mxCell id="c_tfulb-xMNJqZinGDg5-67" value="customer_id bigint NOT NULL" style="shape=partialRectangle;overflow=hidden;connectable=0;fillColor=none;top=0;left=0;bottom=0;right=0;align=left;spacingLeft=6;fontStyle=1;rounded=1;" parent="c_tfulb-xMNJqZinGDg5-65" vertex="1">
          <mxGeometry x="30" width="301" height="30" as="geometry">
            <mxRectangle width="301" height="30" as="alternateBounds" />
          </mxGeometry>
        </mxCell>
        <mxCell id="c_tfulb-xMNJqZinGDg5-39" style="shape=partialRectangle;collapsible=0;dropTarget=0;pointerEvents=0;fillColor=none;points=[[0,0.5],[1,0.5]];portConstraint=eastwest;top=0;left=0;right=0;bottom=0;fontStyle=1;rounded=1;" parent="c_tfulb-xMNJqZinGDg5-26" vertex="1">
          <mxGeometry y="123" width="331" height="30" as="geometry" />
        </mxCell>
        <mxCell id="c_tfulb-xMNJqZinGDg5-40" value="FK" style="shape=partialRectangle;overflow=hidden;connectable=0;fillColor=none;top=0;left=0;bottom=0;right=0;fontStyle=1;rounded=1;" parent="c_tfulb-xMNJqZinGDg5-39" vertex="1">
          <mxGeometry width="30" height="30" as="geometry">
            <mxRectangle width="30" height="30" as="alternateBounds" />
          </mxGeometry>
        </mxCell>
        <mxCell id="c_tfulb-xMNJqZinGDg5-41" value="order_date_id int NOT NULL" style="shape=partialRectangle;overflow=hidden;connectable=0;fillColor=none;top=0;left=0;bottom=0;right=0;align=left;spacingLeft=6;fontStyle=1;rounded=1;" parent="c_tfulb-xMNJqZinGDg5-39" vertex="1">
          <mxGeometry x="30" width="301" height="30" as="geometry">
            <mxRectangle width="301" height="30" as="alternateBounds" />
          </mxGeometry>
        </mxCell>
        <mxCell id="c_tfulb-xMNJqZinGDg5-42" style="shape=partialRectangle;collapsible=0;dropTarget=0;pointerEvents=0;fillColor=none;points=[[0,0.5],[1,0.5]];portConstraint=eastwest;top=0;left=0;right=0;bottom=0;fontStyle=1;rounded=1;" parent="c_tfulb-xMNJqZinGDg5-26" vertex="1">
          <mxGeometry y="153" width="331" height="30" as="geometry" />
        </mxCell>
        <mxCell id="c_tfulb-xMNJqZinGDg5-43" value="FK" style="shape=partialRectangle;overflow=hidden;connectable=0;fillColor=none;top=0;left=0;bottom=0;right=0;fontStyle=1;rounded=1;" parent="c_tfulb-xMNJqZinGDg5-42" vertex="1">
          <mxGeometry width="30" height="30" as="geometry">
            <mxRectangle width="30" height="30" as="alternateBounds" />
          </mxGeometry>
        </mxCell>
        <mxCell id="c_tfulb-xMNJqZinGDg5-44" value="offer_id NOT NULL" style="shape=partialRectangle;overflow=hidden;connectable=0;fillColor=none;top=0;left=0;bottom=0;right=0;align=left;spacingLeft=6;fontStyle=1;rounded=1;" parent="c_tfulb-xMNJqZinGDg5-42" vertex="1">
          <mxGeometry x="30" width="301" height="30" as="geometry">
            <mxRectangle width="301" height="30" as="alternateBounds" />
          </mxGeometry>
        </mxCell>
        <mxCell id="c_tfulb-xMNJqZinGDg5-51" style="shape=partialRectangle;collapsible=0;dropTarget=0;pointerEvents=0;fillColor=none;points=[[0,0.5],[1,0.5]];portConstraint=eastwest;top=0;left=0;right=0;bottom=0;fontStyle=1;rounded=1;" parent="c_tfulb-xMNJqZinGDg5-26" vertex="1">
          <mxGeometry y="183" width="331" height="30" as="geometry" />
        </mxCell>
        <mxCell id="c_tfulb-xMNJqZinGDg5-52" style="shape=partialRectangle;overflow=hidden;connectable=0;fillColor=none;top=0;left=0;bottom=0;right=0;fontStyle=1;rounded=1;" parent="c_tfulb-xMNJqZinGDg5-51" vertex="1">
          <mxGeometry width="30" height="30" as="geometry">
            <mxRectangle width="30" height="30" as="alternateBounds" />
          </mxGeometry>
        </mxCell>
        <mxCell id="c_tfulb-xMNJqZinGDg5-53" value="monthly_cost decimal(18,8) NOT NULL" style="shape=partialRectangle;overflow=hidden;connectable=0;fillColor=none;top=0;left=0;bottom=0;right=0;align=left;spacingLeft=6;fontStyle=1;rounded=1;" parent="c_tfulb-xMNJqZinGDg5-51" vertex="1">
          <mxGeometry x="30" width="301" height="30" as="geometry">
            <mxRectangle width="301" height="30" as="alternateBounds" />
          </mxGeometry>
        </mxCell>
        <mxCell id="5p0k1yBP0SDuxStHFk_L-94" style="shape=partialRectangle;collapsible=0;dropTarget=0;pointerEvents=0;fillColor=none;points=[[0,0.5],[1,0.5]];portConstraint=eastwest;top=0;left=0;right=0;bottom=0;fontStyle=1;rounded=1;" vertex="1" parent="c_tfulb-xMNJqZinGDg5-26">
          <mxGeometry y="213" width="331" height="30" as="geometry" />
        </mxCell>
        <mxCell id="5p0k1yBP0SDuxStHFk_L-95" style="shape=partialRectangle;overflow=hidden;connectable=0;fillColor=none;top=0;left=0;bottom=0;right=0;fontStyle=1;rounded=1;" vertex="1" parent="5p0k1yBP0SDuxStHFk_L-94">
          <mxGeometry width="30" height="30" as="geometry">
            <mxRectangle width="30" height="30" as="alternateBounds" />
          </mxGeometry>
        </mxCell>
        <mxCell id="5p0k1yBP0SDuxStHFk_L-96" value="activation_cost decimal (18,8) NOT NULL" style="shape=partialRectangle;overflow=hidden;connectable=0;fillColor=none;top=0;left=0;bottom=0;right=0;align=left;spacingLeft=6;fontStyle=1;rounded=1;" vertex="1" parent="5p0k1yBP0SDuxStHFk_L-94">
          <mxGeometry x="30" width="301" height="30" as="geometry">
            <mxRectangle width="301" height="30" as="alternateBounds" />
          </mxGeometry>
        </mxCell>
        <mxCell id="c_tfulb-xMNJqZinGDg5-54" style="shape=partialRectangle;collapsible=0;dropTarget=0;pointerEvents=0;fillColor=none;points=[[0,0.5],[1,0.5]];portConstraint=eastwest;top=0;left=0;right=0;bottom=0;fontStyle=1;rounded=1;" parent="c_tfulb-xMNJqZinGDg5-26" vertex="1">
          <mxGeometry y="243" width="331" height="30" as="geometry" />
        </mxCell>
        <mxCell id="c_tfulb-xMNJqZinGDg5-55" style="shape=partialRectangle;overflow=hidden;connectable=0;fillColor=none;top=0;left=0;bottom=0;right=0;fontStyle=1;rounded=1;" parent="c_tfulb-xMNJqZinGDg5-54" vertex="1">
          <mxGeometry width="30" height="30" as="geometry">
            <mxRectangle width="30" height="30" as="alternateBounds" />
          </mxGeometry>
        </mxCell>
        <mxCell id="c_tfulb-xMNJqZinGDg5-56" value="activation_cost_excl_VAT decimal(18,8) NOT NULL" style="shape=partialRectangle;overflow=hidden;connectable=0;fillColor=none;top=0;left=0;bottom=0;right=0;align=left;spacingLeft=6;fontStyle=1;rounded=1;" parent="c_tfulb-xMNJqZinGDg5-54" vertex="1">
          <mxGeometry x="30" width="301" height="30" as="geometry">
            <mxRectangle width="301" height="30" as="alternateBounds" />
          </mxGeometry>
        </mxCell>
        <mxCell id="5p0k1yBP0SDuxStHFk_L-97" style="shape=partialRectangle;collapsible=0;dropTarget=0;pointerEvents=0;fillColor=none;points=[[0,0.5],[1,0.5]];portConstraint=eastwest;top=0;left=0;right=0;bottom=0;fontStyle=1;rounded=1;" vertex="1" parent="c_tfulb-xMNJqZinGDg5-26">
          <mxGeometry y="273" width="331" height="30" as="geometry" />
        </mxCell>
        <mxCell id="5p0k1yBP0SDuxStHFk_L-98" style="shape=partialRectangle;overflow=hidden;connectable=0;fillColor=none;top=0;left=0;bottom=0;right=0;fontStyle=1;rounded=1;" vertex="1" parent="5p0k1yBP0SDuxStHFk_L-97">
          <mxGeometry width="30" height="30" as="geometry">
            <mxRectangle width="30" height="30" as="alternateBounds" />
          </mxGeometry>
        </mxCell>
        <mxCell id="5p0k1yBP0SDuxStHFk_L-99" value="activation_discount decimal(18,8) NOT NULL" style="shape=partialRectangle;overflow=hidden;connectable=0;fillColor=none;top=0;left=0;bottom=0;right=0;align=left;spacingLeft=6;fontStyle=1;rounded=1;" vertex="1" parent="5p0k1yBP0SDuxStHFk_L-97">
          <mxGeometry x="30" width="301" height="30" as="geometry">
            <mxRectangle width="301" height="30" as="alternateBounds" />
          </mxGeometry>
        </mxCell>
        <mxCell id="jb76-3qEg8RtOsv3GqfD-10" value="" style="edgeStyle=entityRelationEdgeStyle;fontSize=12;html=1;endArrow=ERoneToMany;rounded=0;exitX=1;exitY=0.5;exitDx=0;exitDy=0;flowAnimation=1;fillColor=#0050ef;strokeColor=#001DBC;" parent="1" source="C-vyLk0tnHw3VtMMgP7b-24" target="c_tfulb-xMNJqZinGDg5-65" edge="1">
          <mxGeometry width="100" height="100" relative="1" as="geometry">
            <mxPoint x="-11" y="763" as="sourcePoint" />
            <mxPoint x="89" y="663" as="targetPoint" />
          </mxGeometry>
        </mxCell>
        <mxCell id="jb76-3qEg8RtOsv3GqfD-20" value="" style="edgeStyle=entityRelationEdgeStyle;fontSize=12;html=1;endArrow=ERoneToMany;rounded=0;fillColor=#fa6800;strokeColor=#C73500;flowAnimation=1;" parent="1" source="5Bc8UwKq1f_1eTB7SCyp-56" target="c_tfulb-xMNJqZinGDg5-39" edge="1">
          <mxGeometry width="100" height="100" relative="1" as="geometry">
            <mxPoint x="784" y="903" as="sourcePoint" />
            <mxPoint x="884" y="803" as="targetPoint" />
          </mxGeometry>
        </mxCell>
        <mxCell id="5p0k1yBP0SDuxStHFk_L-1" value="Sales Dim" style="shape=table;startSize=30;container=1;collapsible=1;childLayout=tableLayout;fixedRows=1;rowLines=0;align=center;resizeLast=1;fillColor=#f0f6ff;strokeColor=#6c8ebf;fontStyle=1;gradientColor=#0066FF;rounded=1;shadow=1;arcSize=13;" vertex="1" parent="1">
          <mxGeometry x="824" y="98" width="308" height="240" as="geometry" />
        </mxCell>
        <mxCell id="5p0k1yBP0SDuxStHFk_L-2" value="" style="shape=partialRectangle;collapsible=0;dropTarget=0;pointerEvents=0;fillColor=none;points=[[0,0.5],[1,0.5]];portConstraint=eastwest;top=0;left=0;right=0;bottom=1;fontStyle=1;rounded=1;" vertex="1" parent="5p0k1yBP0SDuxStHFk_L-1">
          <mxGeometry y="30" width="308" height="30" as="geometry" />
        </mxCell>
        <mxCell id="5p0k1yBP0SDuxStHFk_L-3" value="PK" style="shape=partialRectangle;overflow=hidden;connectable=0;fillColor=none;top=0;left=0;bottom=0;right=0;fontStyle=1;rounded=1;" vertex="1" parent="5p0k1yBP0SDuxStHFk_L-2">
          <mxGeometry width="30" height="30" as="geometry">
            <mxRectangle width="30" height="30" as="alternateBounds" />
          </mxGeometry>
        </mxCell>
        <mxCell id="5p0k1yBP0SDuxStHFk_L-4" value="contract_id bigint NOT NULL " style="shape=partialRectangle;overflow=hidden;connectable=0;fillColor=none;top=0;left=0;bottom=0;right=0;align=left;spacingLeft=6;fontStyle=1;rounded=1;" vertex="1" parent="5p0k1yBP0SDuxStHFk_L-2">
          <mxGeometry x="30" width="278" height="30" as="geometry">
            <mxRectangle width="278" height="30" as="alternateBounds" />
          </mxGeometry>
        </mxCell>
        <mxCell id="5p0k1yBP0SDuxStHFk_L-17" style="shape=partialRectangle;collapsible=0;dropTarget=0;pointerEvents=0;fillColor=none;points=[[0,0.5],[1,0.5]];portConstraint=eastwest;top=0;left=0;right=0;bottom=0;fontStyle=1;rounded=1;" vertex="1" parent="5p0k1yBP0SDuxStHFk_L-1">
          <mxGeometry y="60" width="308" height="30" as="geometry" />
        </mxCell>
        <mxCell id="5p0k1yBP0SDuxStHFk_L-18" value="FK" style="shape=partialRectangle;overflow=hidden;connectable=0;fillColor=none;top=0;left=0;bottom=0;right=0;fontStyle=1;rounded=1;" vertex="1" parent="5p0k1yBP0SDuxStHFk_L-17">
          <mxGeometry width="30" height="30" as="geometry">
            <mxRectangle width="30" height="30" as="alternateBounds" />
          </mxGeometry>
        </mxCell>
        <mxCell id="5p0k1yBP0SDuxStHFk_L-19" value="customer_id bigint NOT NULL" style="shape=partialRectangle;overflow=hidden;connectable=0;fillColor=none;top=0;left=0;bottom=0;right=0;align=left;spacingLeft=6;fontStyle=1;rounded=1;" vertex="1" parent="5p0k1yBP0SDuxStHFk_L-17">
          <mxGeometry x="30" width="278" height="30" as="geometry">
            <mxRectangle width="278" height="30" as="alternateBounds" />
          </mxGeometry>
        </mxCell>
        <mxCell id="5p0k1yBP0SDuxStHFk_L-20" style="shape=partialRectangle;collapsible=0;dropTarget=0;pointerEvents=0;fillColor=none;points=[[0,0.5],[1,0.5]];portConstraint=eastwest;top=0;left=0;right=0;bottom=0;fontStyle=1;rounded=1;" vertex="1" parent="5p0k1yBP0SDuxStHFk_L-1">
          <mxGeometry y="90" width="308" height="30" as="geometry" />
        </mxCell>
        <mxCell id="5p0k1yBP0SDuxStHFk_L-21" value="FK" style="shape=partialRectangle;overflow=hidden;connectable=0;fillColor=none;top=0;left=0;bottom=0;right=0;fontStyle=1;rounded=1;" vertex="1" parent="5p0k1yBP0SDuxStHFk_L-20">
          <mxGeometry width="30" height="30" as="geometry">
            <mxRectangle width="30" height="30" as="alternateBounds" />
          </mxGeometry>
        </mxCell>
        <mxCell id="5p0k1yBP0SDuxStHFk_L-22" value="product_id bigint NOT NULL" style="shape=partialRectangle;overflow=hidden;connectable=0;fillColor=none;top=0;left=0;bottom=0;right=0;align=left;spacingLeft=6;fontStyle=1;rounded=1;" vertex="1" parent="5p0k1yBP0SDuxStHFk_L-20">
          <mxGeometry x="30" width="278" height="30" as="geometry">
            <mxRectangle width="278" height="30" as="alternateBounds" />
          </mxGeometry>
        </mxCell>
        <mxCell id="5p0k1yBP0SDuxStHFk_L-26" style="shape=partialRectangle;collapsible=0;dropTarget=0;pointerEvents=0;fillColor=none;points=[[0,0.5],[1,0.5]];portConstraint=eastwest;top=0;left=0;right=0;bottom=0;fontStyle=1;rounded=1;" vertex="1" parent="5p0k1yBP0SDuxStHFk_L-1">
          <mxGeometry y="120" width="308" height="30" as="geometry" />
        </mxCell>
        <mxCell id="5p0k1yBP0SDuxStHFk_L-27" value="FK" style="shape=partialRectangle;overflow=hidden;connectable=0;fillColor=none;top=0;left=0;bottom=0;right=0;fontStyle=1;rounded=1;" vertex="1" parent="5p0k1yBP0SDuxStHFk_L-26">
          <mxGeometry width="30" height="30" as="geometry">
            <mxRectangle width="30" height="30" as="alternateBounds" />
          </mxGeometry>
        </mxCell>
        <mxCell id="5p0k1yBP0SDuxStHFk_L-28" value="offer_id int  NOT NULL" style="shape=partialRectangle;overflow=hidden;connectable=0;fillColor=none;top=0;left=0;bottom=0;right=0;align=left;spacingLeft=6;fontStyle=1;rounded=1;" vertex="1" parent="5p0k1yBP0SDuxStHFk_L-26">
          <mxGeometry x="30" width="278" height="30" as="geometry">
            <mxRectangle width="278" height="30" as="alternateBounds" />
          </mxGeometry>
        </mxCell>
        <mxCell id="5p0k1yBP0SDuxStHFk_L-5" value="" style="shape=partialRectangle;collapsible=0;dropTarget=0;pointerEvents=0;fillColor=none;points=[[0,0.5],[1,0.5]];portConstraint=eastwest;top=0;left=0;right=0;bottom=0;fontStyle=1;rounded=1;" vertex="1" parent="5p0k1yBP0SDuxStHFk_L-1">
          <mxGeometry y="150" width="308" height="30" as="geometry" />
        </mxCell>
        <mxCell id="5p0k1yBP0SDuxStHFk_L-6" value="" style="shape=partialRectangle;overflow=hidden;connectable=0;fillColor=none;top=0;left=0;bottom=0;right=0;fontStyle=1;rounded=1;" vertex="1" parent="5p0k1yBP0SDuxStHFk_L-5">
          <mxGeometry width="30" height="30" as="geometry">
            <mxRectangle width="30" height="30" as="alternateBounds" />
          </mxGeometry>
        </mxCell>
        <mxCell id="5p0k1yBP0SDuxStHFk_L-7" value="contract_status char(50) NOT NULL" style="shape=partialRectangle;overflow=hidden;connectable=0;fillColor=none;top=0;left=0;bottom=0;right=0;align=left;spacingLeft=6;fontStyle=1;rounded=1;" vertex="1" parent="5p0k1yBP0SDuxStHFk_L-5">
          <mxGeometry x="30" width="278" height="30" as="geometry">
            <mxRectangle width="278" height="30" as="alternateBounds" />
          </mxGeometry>
        </mxCell>
        <mxCell id="5p0k1yBP0SDuxStHFk_L-8" style="shape=partialRectangle;collapsible=0;dropTarget=0;pointerEvents=0;fillColor=none;points=[[0,0.5],[1,0.5]];portConstraint=eastwest;top=0;left=0;right=0;bottom=0;fontStyle=1;rounded=1;" vertex="1" parent="5p0k1yBP0SDuxStHFk_L-1">
          <mxGeometry y="180" width="308" height="30" as="geometry" />
        </mxCell>
        <mxCell id="5p0k1yBP0SDuxStHFk_L-9" style="shape=partialRectangle;overflow=hidden;connectable=0;fillColor=none;top=0;left=0;bottom=0;right=0;fontStyle=1;rounded=1;" vertex="1" parent="5p0k1yBP0SDuxStHFk_L-8">
          <mxGeometry width="30" height="30" as="geometry">
            <mxRectangle width="30" height="30" as="alternateBounds" />
          </mxGeometry>
        </mxCell>
        <mxCell id="5p0k1yBP0SDuxStHFk_L-10" value="is_completed bit NOT NULL" style="shape=partialRectangle;overflow=hidden;connectable=0;fillColor=none;top=0;left=0;bottom=0;right=0;align=left;spacingLeft=6;fontStyle=1;rounded=1;" vertex="1" parent="5p0k1yBP0SDuxStHFk_L-8">
          <mxGeometry x="30" width="278" height="30" as="geometry">
            <mxRectangle width="278" height="30" as="alternateBounds" />
          </mxGeometry>
        </mxCell>
        <mxCell id="5p0k1yBP0SDuxStHFk_L-11" style="shape=partialRectangle;collapsible=0;dropTarget=0;pointerEvents=0;fillColor=none;points=[[0,0.5],[1,0.5]];portConstraint=eastwest;top=0;left=0;right=0;bottom=0;fontStyle=1;rounded=1;" vertex="1" parent="5p0k1yBP0SDuxStHFk_L-1">
          <mxGeometry y="210" width="308" height="30" as="geometry" />
        </mxCell>
        <mxCell id="5p0k1yBP0SDuxStHFk_L-12" style="shape=partialRectangle;overflow=hidden;connectable=0;fillColor=none;top=0;left=0;bottom=0;right=0;fontStyle=1;rounded=1;" vertex="1" parent="5p0k1yBP0SDuxStHFk_L-11">
          <mxGeometry width="30" height="30" as="geometry">
            <mxRectangle width="30" height="30" as="alternateBounds" />
          </mxGeometry>
        </mxCell>
        <mxCell id="5p0k1yBP0SDuxStHFk_L-13" value="is_first_contract bit NOT NULL" style="shape=partialRectangle;overflow=hidden;connectable=0;fillColor=none;top=0;left=0;bottom=0;right=0;align=left;spacingLeft=6;fontStyle=1;rounded=1;" vertex="1" parent="5p0k1yBP0SDuxStHFk_L-11">
          <mxGeometry x="30" width="278" height="30" as="geometry">
            <mxRectangle width="278" height="30" as="alternateBounds" />
          </mxGeometry>
        </mxCell>
        <mxCell id="5p0k1yBP0SDuxStHFk_L-38" value="Customer Type Dim" style="shape=table;startSize=30;container=1;collapsible=1;childLayout=tableLayout;fixedRows=1;rowLines=0;align=center;resizeLast=1;fillColor=#f0f6ff;strokeColor=#6c8ebf;fontStyle=1;gradientColor=#0066FF;rounded=1;shadow=1;" vertex="1" parent="1">
          <mxGeometry x="690.5" y="1304" width="308" height="180" as="geometry" />
        </mxCell>
        <mxCell id="5p0k1yBP0SDuxStHFk_L-39" value="" style="shape=partialRectangle;collapsible=0;dropTarget=0;pointerEvents=0;fillColor=none;points=[[0,0.5],[1,0.5]];portConstraint=eastwest;top=0;left=0;right=0;bottom=1;fontStyle=1;rounded=1;" vertex="1" parent="5p0k1yBP0SDuxStHFk_L-38">
          <mxGeometry y="30" width="308" height="30" as="geometry" />
        </mxCell>
        <mxCell id="5p0k1yBP0SDuxStHFk_L-40" value="PK" style="shape=partialRectangle;overflow=hidden;connectable=0;fillColor=none;top=0;left=0;bottom=0;right=0;fontStyle=1;rounded=1;" vertex="1" parent="5p0k1yBP0SDuxStHFk_L-39">
          <mxGeometry width="30" height="30" as="geometry">
            <mxRectangle width="30" height="30" as="alternateBounds" />
          </mxGeometry>
        </mxCell>
        <mxCell id="5p0k1yBP0SDuxStHFk_L-41" value="cust_type_id int NOT NULL " style="shape=partialRectangle;overflow=hidden;connectable=0;fillColor=none;top=0;left=0;bottom=0;right=0;align=left;spacingLeft=6;fontStyle=1;rounded=1;" vertex="1" parent="5p0k1yBP0SDuxStHFk_L-39">
          <mxGeometry x="30" width="278" height="30" as="geometry">
            <mxRectangle width="278" height="30" as="alternateBounds" />
          </mxGeometry>
        </mxCell>
        <mxCell id="5p0k1yBP0SDuxStHFk_L-45" value="" style="shape=partialRectangle;collapsible=0;dropTarget=0;pointerEvents=0;fillColor=none;points=[[0,0.5],[1,0.5]];portConstraint=eastwest;top=0;left=0;right=0;bottom=0;fontStyle=1;rounded=1;" vertex="1" parent="5p0k1yBP0SDuxStHFk_L-38">
          <mxGeometry y="60" width="308" height="30" as="geometry" />
        </mxCell>
        <mxCell id="5p0k1yBP0SDuxStHFk_L-46" value="" style="shape=partialRectangle;overflow=hidden;connectable=0;fillColor=none;top=0;left=0;bottom=0;right=0;fontStyle=1;rounded=1;" vertex="1" parent="5p0k1yBP0SDuxStHFk_L-45">
          <mxGeometry width="30" height="30" as="geometry">
            <mxRectangle width="30" height="30" as="alternateBounds" />
          </mxGeometry>
        </mxCell>
        <mxCell id="5p0k1yBP0SDuxStHFk_L-47" value="type_name varchar(50) NOT NULL" style="shape=partialRectangle;overflow=hidden;connectable=0;fillColor=none;top=0;left=0;bottom=0;right=0;align=left;spacingLeft=6;fontStyle=1;rounded=1;" vertex="1" parent="5p0k1yBP0SDuxStHFk_L-45">
          <mxGeometry x="30" width="278" height="30" as="geometry">
            <mxRectangle width="278" height="30" as="alternateBounds" />
          </mxGeometry>
        </mxCell>
        <mxCell id="5p0k1yBP0SDuxStHFk_L-48" style="shape=partialRectangle;collapsible=0;dropTarget=0;pointerEvents=0;fillColor=none;points=[[0,0.5],[1,0.5]];portConstraint=eastwest;top=0;left=0;right=0;bottom=0;fontStyle=1;rounded=1;" vertex="1" parent="5p0k1yBP0SDuxStHFk_L-38">
          <mxGeometry y="90" width="308" height="30" as="geometry" />
        </mxCell>
        <mxCell id="5p0k1yBP0SDuxStHFk_L-49" style="shape=partialRectangle;overflow=hidden;connectable=0;fillColor=none;top=0;left=0;bottom=0;right=0;fontStyle=1;rounded=1;" vertex="1" parent="5p0k1yBP0SDuxStHFk_L-48">
          <mxGeometry width="30" height="30" as="geometry">
            <mxRectangle width="30" height="30" as="alternateBounds" />
          </mxGeometry>
        </mxCell>
        <mxCell id="5p0k1yBP0SDuxStHFk_L-50" value="type_desc varchar(255) NOT NULL" style="shape=partialRectangle;overflow=hidden;connectable=0;fillColor=none;top=0;left=0;bottom=0;right=0;align=left;spacingLeft=6;fontStyle=1;rounded=1;" vertex="1" parent="5p0k1yBP0SDuxStHFk_L-48">
          <mxGeometry x="30" width="278" height="30" as="geometry">
            <mxRectangle width="278" height="30" as="alternateBounds" />
          </mxGeometry>
        </mxCell>
        <mxCell id="5p0k1yBP0SDuxStHFk_L-54" style="shape=partialRectangle;collapsible=0;dropTarget=0;pointerEvents=0;fillColor=none;points=[[0,0.5],[1,0.5]];portConstraint=eastwest;top=0;left=0;right=0;bottom=0;fontStyle=1;rounded=1;" vertex="1" parent="5p0k1yBP0SDuxStHFk_L-38">
          <mxGeometry y="120" width="308" height="30" as="geometry" />
        </mxCell>
        <mxCell id="5p0k1yBP0SDuxStHFk_L-55" style="shape=partialRectangle;overflow=hidden;connectable=0;fillColor=none;top=0;left=0;bottom=0;right=0;fontStyle=1;rounded=1;" vertex="1" parent="5p0k1yBP0SDuxStHFk_L-54">
          <mxGeometry width="30" height="30" as="geometry">
            <mxRectangle width="30" height="30" as="alternateBounds" />
          </mxGeometry>
        </mxCell>
        <mxCell id="5p0k1yBP0SDuxStHFk_L-56" value="type_start_dt date NOT NULL" style="shape=partialRectangle;overflow=hidden;connectable=0;fillColor=none;top=0;left=0;bottom=0;right=0;align=left;spacingLeft=6;fontStyle=1;rounded=1;" vertex="1" parent="5p0k1yBP0SDuxStHFk_L-54">
          <mxGeometry x="30" width="278" height="30" as="geometry">
            <mxRectangle width="278" height="30" as="alternateBounds" />
          </mxGeometry>
        </mxCell>
        <mxCell id="5p0k1yBP0SDuxStHFk_L-131" style="shape=partialRectangle;collapsible=0;dropTarget=0;pointerEvents=0;fillColor=none;points=[[0,0.5],[1,0.5]];portConstraint=eastwest;top=0;left=0;right=0;bottom=0;fontStyle=1;rounded=1;" vertex="1" parent="5p0k1yBP0SDuxStHFk_L-38">
          <mxGeometry y="150" width="308" height="30" as="geometry" />
        </mxCell>
        <mxCell id="5p0k1yBP0SDuxStHFk_L-132" style="shape=partialRectangle;overflow=hidden;connectable=0;fillColor=none;top=0;left=0;bottom=0;right=0;fontStyle=1;rounded=1;" vertex="1" parent="5p0k1yBP0SDuxStHFk_L-131">
          <mxGeometry width="30" height="30" as="geometry">
            <mxRectangle width="30" height="30" as="alternateBounds" />
          </mxGeometry>
        </mxCell>
        <mxCell id="5p0k1yBP0SDuxStHFk_L-133" value="type_end_dt date NOT NULL" style="shape=partialRectangle;overflow=hidden;connectable=0;fillColor=none;top=0;left=0;bottom=0;right=0;align=left;spacingLeft=6;fontStyle=1;rounded=1;" vertex="1" parent="5p0k1yBP0SDuxStHFk_L-131">
          <mxGeometry x="30" width="278" height="30" as="geometry">
            <mxRectangle width="278" height="30" as="alternateBounds" />
          </mxGeometry>
        </mxCell>
        <mxCell id="5p0k1yBP0SDuxStHFk_L-57" value="Customer Satisfaction Fact" style="shape=table;startSize=33;container=1;collapsible=1;childLayout=tableLayout;fixedRows=1;rowLines=0;align=center;resizeLast=1;fillColor=#f8cecc;strokeColor=#b85450;fontStyle=1;rounded=1;shadow=1;" vertex="1" parent="1">
          <mxGeometry x="679" y="789" width="331" height="224.56" as="geometry" />
        </mxCell>
        <mxCell id="5p0k1yBP0SDuxStHFk_L-58" value="" style="shape=partialRectangle;collapsible=0;dropTarget=0;pointerEvents=0;fillColor=none;points=[[0,0.5],[1,0.5]];portConstraint=eastwest;top=0;left=0;right=0;bottom=1;fontStyle=1;rounded=1;" vertex="1" parent="5p0k1yBP0SDuxStHFk_L-57">
          <mxGeometry y="33" width="331" height="30" as="geometry" />
        </mxCell>
        <mxCell id="5p0k1yBP0SDuxStHFk_L-59" value="PK" style="shape=partialRectangle;overflow=hidden;connectable=0;fillColor=none;top=0;left=0;bottom=0;right=0;fontStyle=1;rounded=1;" vertex="1" parent="5p0k1yBP0SDuxStHFk_L-58">
          <mxGeometry width="30" height="30" as="geometry">
            <mxRectangle width="30" height="30" as="alternateBounds" />
          </mxGeometry>
        </mxCell>
        <mxCell id="5p0k1yBP0SDuxStHFk_L-60" value="cust_sat_id bigint NOT NULL " style="shape=partialRectangle;overflow=hidden;connectable=0;fillColor=none;top=0;left=0;bottom=0;right=0;align=left;spacingLeft=6;fontStyle=1;rounded=1;" vertex="1" parent="5p0k1yBP0SDuxStHFk_L-58">
          <mxGeometry x="30" width="301" height="30" as="geometry">
            <mxRectangle width="301" height="30" as="alternateBounds" />
          </mxGeometry>
        </mxCell>
        <mxCell id="5p0k1yBP0SDuxStHFk_L-64" style="shape=partialRectangle;collapsible=0;dropTarget=0;pointerEvents=0;fillColor=none;points=[[0,0.5],[1,0.5]];portConstraint=eastwest;top=0;left=0;right=0;bottom=0;fontStyle=1;rounded=1;" vertex="1" parent="5p0k1yBP0SDuxStHFk_L-57">
          <mxGeometry y="63" width="331" height="30" as="geometry" />
        </mxCell>
        <mxCell id="5p0k1yBP0SDuxStHFk_L-65" value="FK" style="shape=partialRectangle;overflow=hidden;connectable=0;fillColor=none;top=0;left=0;bottom=0;right=0;fontStyle=1;rounded=1;" vertex="1" parent="5p0k1yBP0SDuxStHFk_L-64">
          <mxGeometry width="30" height="30" as="geometry">
            <mxRectangle width="30" height="30" as="alternateBounds" />
          </mxGeometry>
        </mxCell>
        <mxCell id="5p0k1yBP0SDuxStHFk_L-66" value="customer_id bigint NOT NULL" style="shape=partialRectangle;overflow=hidden;connectable=0;fillColor=none;top=0;left=0;bottom=0;right=0;align=left;spacingLeft=6;fontStyle=1;rounded=1;" vertex="1" parent="5p0k1yBP0SDuxStHFk_L-64">
          <mxGeometry x="30" width="301" height="30" as="geometry">
            <mxRectangle width="301" height="30" as="alternateBounds" />
          </mxGeometry>
        </mxCell>
        <mxCell id="5p0k1yBP0SDuxStHFk_L-91" style="shape=partialRectangle;collapsible=0;dropTarget=0;pointerEvents=0;fillColor=none;points=[[0,0.5],[1,0.5]];portConstraint=eastwest;top=0;left=0;right=0;bottom=0;fontStyle=1;rounded=1;" vertex="1" parent="5p0k1yBP0SDuxStHFk_L-57">
          <mxGeometry y="93" width="331" height="30" as="geometry" />
        </mxCell>
        <mxCell id="5p0k1yBP0SDuxStHFk_L-92" value="FK" style="shape=partialRectangle;overflow=hidden;connectable=0;fillColor=none;top=0;left=0;bottom=0;right=0;fontStyle=1;rounded=1;" vertex="1" parent="5p0k1yBP0SDuxStHFk_L-91">
          <mxGeometry width="30" height="30" as="geometry">
            <mxRectangle width="30" height="30" as="alternateBounds" />
          </mxGeometry>
        </mxCell>
        <mxCell id="5p0k1yBP0SDuxStHFk_L-93" value="survey_id bigint NOT NULL" style="shape=partialRectangle;overflow=hidden;connectable=0;fillColor=none;top=0;left=0;bottom=0;right=0;align=left;spacingLeft=6;fontStyle=1;rounded=1;" vertex="1" parent="5p0k1yBP0SDuxStHFk_L-91">
          <mxGeometry x="30" width="301" height="30" as="geometry">
            <mxRectangle width="301" height="30" as="alternateBounds" />
          </mxGeometry>
        </mxCell>
        <mxCell id="5p0k1yBP0SDuxStHFk_L-61" style="shape=partialRectangle;collapsible=0;dropTarget=0;pointerEvents=0;fillColor=none;points=[[0,0.5],[1,0.5]];portConstraint=eastwest;top=0;left=0;right=0;bottom=0;fontStyle=1;rounded=1;" vertex="1" parent="5p0k1yBP0SDuxStHFk_L-57">
          <mxGeometry y="123" width="331" height="30" as="geometry" />
        </mxCell>
        <mxCell id="5p0k1yBP0SDuxStHFk_L-62" value="FK" style="shape=partialRectangle;overflow=hidden;connectable=0;fillColor=none;top=0;left=0;bottom=0;right=0;fontStyle=1;rounded=1;" vertex="1" parent="5p0k1yBP0SDuxStHFk_L-61">
          <mxGeometry width="30" height="30" as="geometry">
            <mxRectangle width="30" height="30" as="alternateBounds" />
          </mxGeometry>
        </mxCell>
        <mxCell id="5p0k1yBP0SDuxStHFk_L-63" value="product_id bigint NOT NULL" style="shape=partialRectangle;overflow=hidden;connectable=0;fillColor=none;top=0;left=0;bottom=0;right=0;align=left;spacingLeft=6;fontStyle=1;rounded=1;" vertex="1" parent="5p0k1yBP0SDuxStHFk_L-61">
          <mxGeometry x="30" width="301" height="30" as="geometry">
            <mxRectangle width="301" height="30" as="alternateBounds" />
          </mxGeometry>
        </mxCell>
        <mxCell id="5p0k1yBP0SDuxStHFk_L-85" style="shape=partialRectangle;collapsible=0;dropTarget=0;pointerEvents=0;fillColor=none;points=[[0,0.5],[1,0.5]];portConstraint=eastwest;top=0;left=0;right=0;bottom=0;fontStyle=1;rounded=1;" vertex="1" parent="5p0k1yBP0SDuxStHFk_L-57">
          <mxGeometry y="153" width="331" height="30" as="geometry" />
        </mxCell>
        <mxCell id="5p0k1yBP0SDuxStHFk_L-86" style="shape=partialRectangle;overflow=hidden;connectable=0;fillColor=none;top=0;left=0;bottom=0;right=0;fontStyle=1;rounded=1;" vertex="1" parent="5p0k1yBP0SDuxStHFk_L-85">
          <mxGeometry width="30" height="30" as="geometry">
            <mxRectangle width="30" height="30" as="alternateBounds" />
          </mxGeometry>
        </mxCell>
        <mxCell id="5p0k1yBP0SDuxStHFk_L-87" value="event_dt date NOT NULL" style="shape=partialRectangle;overflow=hidden;connectable=0;fillColor=none;top=0;left=0;bottom=0;right=0;align=left;spacingLeft=6;fontStyle=1;rounded=1;" vertex="1" parent="5p0k1yBP0SDuxStHFk_L-85">
          <mxGeometry x="30" width="301" height="30" as="geometry">
            <mxRectangle width="301" height="30" as="alternateBounds" />
          </mxGeometry>
        </mxCell>
        <mxCell id="5p0k1yBP0SDuxStHFk_L-73" style="shape=partialRectangle;collapsible=0;dropTarget=0;pointerEvents=0;fillColor=none;points=[[0,0.5],[1,0.5]];portConstraint=eastwest;top=0;left=0;right=0;bottom=0;fontStyle=1;rounded=1;" vertex="1" parent="5p0k1yBP0SDuxStHFk_L-57">
          <mxGeometry y="183" width="331" height="30" as="geometry" />
        </mxCell>
        <mxCell id="5p0k1yBP0SDuxStHFk_L-74" style="shape=partialRectangle;overflow=hidden;connectable=0;fillColor=none;top=0;left=0;bottom=0;right=0;fontStyle=1;rounded=1;" vertex="1" parent="5p0k1yBP0SDuxStHFk_L-73">
          <mxGeometry width="30" height="30" as="geometry">
            <mxRectangle width="30" height="30" as="alternateBounds" />
          </mxGeometry>
        </mxCell>
        <mxCell id="5p0k1yBP0SDuxStHFk_L-75" value="event_score int NOT NULL" style="shape=partialRectangle;overflow=hidden;connectable=0;fillColor=none;top=0;left=0;bottom=0;right=0;align=left;spacingLeft=6;fontStyle=1;rounded=1;" vertex="1" parent="5p0k1yBP0SDuxStHFk_L-73">
          <mxGeometry x="30" width="301" height="30" as="geometry">
            <mxRectangle width="301" height="30" as="alternateBounds" />
          </mxGeometry>
        </mxCell>
        <mxCell id="5p0k1yBP0SDuxStHFk_L-112" value="Gift Card Dim" style="shape=table;startSize=30;container=1;collapsible=1;childLayout=tableLayout;fixedRows=1;rowLines=0;align=center;resizeLast=1;fillColor=#f0f6ff;strokeColor=#6c8ebf;fontStyle=1;gradientColor=#0066FF;rounded=1;shadow=1;" vertex="1" parent="1">
          <mxGeometry x="262" y="1173" width="306" height="216.93469238281273" as="geometry" />
        </mxCell>
        <mxCell id="5p0k1yBP0SDuxStHFk_L-113" value="" style="shape=partialRectangle;collapsible=0;dropTarget=0;pointerEvents=0;fillColor=none;points=[[0,0.5],[1,0.5]];portConstraint=eastwest;top=0;left=0;right=0;bottom=1;fontStyle=1;rounded=1;" vertex="1" parent="5p0k1yBP0SDuxStHFk_L-112">
          <mxGeometry y="30" width="306" height="30" as="geometry" />
        </mxCell>
        <mxCell id="5p0k1yBP0SDuxStHFk_L-114" value="PK" style="shape=partialRectangle;overflow=hidden;connectable=0;fillColor=none;top=0;left=0;bottom=0;right=0;fontStyle=1;rounded=1;" vertex="1" parent="5p0k1yBP0SDuxStHFk_L-113">
          <mxGeometry width="30" height="30" as="geometry">
            <mxRectangle width="30" height="30" as="alternateBounds" />
          </mxGeometry>
        </mxCell>
        <mxCell id="5p0k1yBP0SDuxStHFk_L-115" value="gift_card_id int NOT NULL " style="shape=partialRectangle;overflow=hidden;connectable=0;fillColor=none;top=0;left=0;bottom=0;right=0;align=left;spacingLeft=6;fontStyle=1;rounded=1;" vertex="1" parent="5p0k1yBP0SDuxStHFk_L-113">
          <mxGeometry x="30" width="276" height="30" as="geometry">
            <mxRectangle width="276" height="30" as="alternateBounds" />
          </mxGeometry>
        </mxCell>
        <mxCell id="5p0k1yBP0SDuxStHFk_L-116" style="shape=partialRectangle;collapsible=0;dropTarget=0;pointerEvents=0;fillColor=none;points=[[0,0.5],[1,0.5]];portConstraint=eastwest;top=0;left=0;right=0;bottom=0;fontStyle=1;rounded=1;" vertex="1" parent="5p0k1yBP0SDuxStHFk_L-112">
          <mxGeometry y="60" width="306" height="30" as="geometry" />
        </mxCell>
        <mxCell id="5p0k1yBP0SDuxStHFk_L-117" value="FK" style="shape=partialRectangle;overflow=hidden;connectable=0;fillColor=none;top=0;left=0;bottom=0;right=0;fontStyle=1;rounded=1;" vertex="1" parent="5p0k1yBP0SDuxStHFk_L-116">
          <mxGeometry width="30" height="30" as="geometry">
            <mxRectangle width="30" height="30" as="alternateBounds" />
          </mxGeometry>
        </mxCell>
        <mxCell id="5p0k1yBP0SDuxStHFk_L-118" value="cust_type_id int NOT NULL" style="shape=partialRectangle;overflow=hidden;connectable=0;fillColor=none;top=0;left=0;bottom=0;right=0;align=left;spacingLeft=6;fontStyle=1;rounded=1;" vertex="1" parent="5p0k1yBP0SDuxStHFk_L-116">
          <mxGeometry x="30" width="276" height="30" as="geometry">
            <mxRectangle width="276" height="30" as="alternateBounds" />
          </mxGeometry>
        </mxCell>
        <mxCell id="5p0k1yBP0SDuxStHFk_L-119" value="" style="shape=partialRectangle;collapsible=0;dropTarget=0;pointerEvents=0;fillColor=none;points=[[0,0.5],[1,0.5]];portConstraint=eastwest;top=0;left=0;right=0;bottom=0;fontStyle=1;rounded=1;" vertex="1" parent="5p0k1yBP0SDuxStHFk_L-112">
          <mxGeometry y="90" width="306" height="31" as="geometry" />
        </mxCell>
        <mxCell id="5p0k1yBP0SDuxStHFk_L-120" value="" style="shape=partialRectangle;overflow=hidden;connectable=0;fillColor=none;top=0;left=0;bottom=0;right=0;fontStyle=1;rounded=1;" vertex="1" parent="5p0k1yBP0SDuxStHFk_L-119">
          <mxGeometry width="30" height="31" as="geometry">
            <mxRectangle width="30" height="31" as="alternateBounds" />
          </mxGeometry>
        </mxCell>
        <mxCell id="5p0k1yBP0SDuxStHFk_L-121" value="supplier char(50) NOT NULL" style="shape=partialRectangle;overflow=hidden;connectable=0;fillColor=none;top=0;left=0;bottom=0;right=0;align=left;spacingLeft=6;fontStyle=1;rounded=1;" vertex="1" parent="5p0k1yBP0SDuxStHFk_L-119">
          <mxGeometry x="30" width="276" height="31" as="geometry">
            <mxRectangle width="276" height="31" as="alternateBounds" />
          </mxGeometry>
        </mxCell>
        <mxCell id="5p0k1yBP0SDuxStHFk_L-122" value="" style="shape=partialRectangle;collapsible=0;dropTarget=0;pointerEvents=0;fillColor=none;points=[[0,0.5],[1,0.5]];portConstraint=eastwest;top=0;left=0;right=0;bottom=0;fontStyle=1;rounded=1;" vertex="1" parent="5p0k1yBP0SDuxStHFk_L-112">
          <mxGeometry y="121" width="306" height="26" as="geometry" />
        </mxCell>
        <mxCell id="5p0k1yBP0SDuxStHFk_L-123" value="" style="shape=partialRectangle;overflow=hidden;connectable=0;fillColor=none;top=0;left=0;bottom=0;right=0;fontStyle=1;rounded=1;" vertex="1" parent="5p0k1yBP0SDuxStHFk_L-122">
          <mxGeometry width="30" height="26" as="geometry">
            <mxRectangle width="30" height="26" as="alternateBounds" />
          </mxGeometry>
        </mxCell>
        <mxCell id="5p0k1yBP0SDuxStHFk_L-124" value="is_active bit NOT NULL" style="shape=partialRectangle;overflow=hidden;connectable=0;fillColor=none;top=0;left=0;bottom=0;right=0;align=left;spacingLeft=6;fontStyle=1;rounded=1;" vertex="1" parent="5p0k1yBP0SDuxStHFk_L-122">
          <mxGeometry x="30" width="276" height="26" as="geometry">
            <mxRectangle width="276" height="26" as="alternateBounds" />
          </mxGeometry>
        </mxCell>
        <mxCell id="5p0k1yBP0SDuxStHFk_L-128" style="shape=partialRectangle;collapsible=0;dropTarget=0;pointerEvents=0;fillColor=none;points=[[0,0.5],[1,0.5]];portConstraint=eastwest;top=0;left=0;right=0;bottom=0;fontStyle=1;rounded=1;" vertex="1" parent="5p0k1yBP0SDuxStHFk_L-112">
          <mxGeometry y="147" width="306" height="26" as="geometry" />
        </mxCell>
        <mxCell id="5p0k1yBP0SDuxStHFk_L-129" style="shape=partialRectangle;overflow=hidden;connectable=0;fillColor=none;top=0;left=0;bottom=0;right=0;fontStyle=1;rounded=1;" vertex="1" parent="5p0k1yBP0SDuxStHFk_L-128">
          <mxGeometry width="30" height="26" as="geometry">
            <mxRectangle width="30" height="26" as="alternateBounds" />
          </mxGeometry>
        </mxCell>
        <mxCell id="5p0k1yBP0SDuxStHFk_L-130" value="redeemed bit NOT NULL" style="shape=partialRectangle;overflow=hidden;connectable=0;fillColor=none;top=0;left=0;bottom=0;right=0;align=left;spacingLeft=6;fontStyle=1;rounded=1;" vertex="1" parent="5p0k1yBP0SDuxStHFk_L-128">
          <mxGeometry x="30" width="276" height="26" as="geometry">
            <mxRectangle width="276" height="26" as="alternateBounds" />
          </mxGeometry>
        </mxCell>
        <mxCell id="5p0k1yBP0SDuxStHFk_L-125" style="shape=partialRectangle;collapsible=0;dropTarget=0;pointerEvents=0;fillColor=none;points=[[0,0.5],[1,0.5]];portConstraint=eastwest;top=0;left=0;right=0;bottom=0;fontStyle=1;rounded=1;" vertex="1" parent="5p0k1yBP0SDuxStHFk_L-112">
          <mxGeometry y="173" width="306" height="26" as="geometry" />
        </mxCell>
        <mxCell id="5p0k1yBP0SDuxStHFk_L-126" style="shape=partialRectangle;overflow=hidden;connectable=0;fillColor=none;top=0;left=0;bottom=0;right=0;fontStyle=1;rounded=1;" vertex="1" parent="5p0k1yBP0SDuxStHFk_L-125">
          <mxGeometry width="30" height="26" as="geometry">
            <mxRectangle width="30" height="26" as="alternateBounds" />
          </mxGeometry>
        </mxCell>
        <mxCell id="5p0k1yBP0SDuxStHFk_L-127" value="expiry_date DATE NULL" style="shape=partialRectangle;overflow=hidden;connectable=0;fillColor=none;top=0;left=0;bottom=0;right=0;align=left;spacingLeft=6;fontStyle=1;rounded=1;" vertex="1" parent="5p0k1yBP0SDuxStHFk_L-125">
          <mxGeometry x="30" width="276" height="26" as="geometry">
            <mxRectangle width="276" height="26" as="alternateBounds" />
          </mxGeometry>
        </mxCell>
      </root>
    </mxGraphModel>
  </diagram>
</mxfile>
